  0
SECTION
  2
HEADER
  9
$ACADVER
  1
AC1014
  9
$ACADMAINTVER
 70
     0
  9
$DWGCODEPAGE
  3
ANSI_1252
  9
$INSBASE
 10
0.0
 20
0.0
 30
0.0
  9
$EXTMIN
 10
0.0
 20
0.0
 30
0.0
  9
$EXTMAX
 10
841.0
 20
594.0
 30
0.0
  9
$LIMMIN
 10
0.0
 20
0.0
  9
$LIMMAX
 10
12.0
 20
9.0
  9
$ORTHOMODE
 70
     0
  9
$REGENMODE
 70
     1
  9
$FILLMODE
 70
     0
  9
$QTEXTMODE
 70
     0
  9
$MIRRTEXT
 70
     1
  9
$DRAGMODE
 70
     2
  9
$LTSCALE
 40
1.0
  9
$OSMODE
 70
     0
  9
$ATTMODE
 70
     1
  9
$TEXTSIZE
 40
0.2
  9
$TRACEWID
 40
0.05
  9
$TEXTSTYLE
  7
STANDARD
  9
$CLAYER
  8
0
  9
$CELTYPE
  6
BYLAYER
  9
$CECOLOR
 62
   256
  9
$CELTSCALE
 40
1.0
  9
$DELOBJ
 70
     1
  9
$DISPSILH
 70
     0
  9
$DIMSCALE
 40
1.0
  9
$DIMASZ
 40
0.18
  9
$DIMEXO
 40
0.0625
  9
$DIMDLI
 40
0.38
  9
$DIMRND
 40
0.0
  9
$DIMDLE
 40
0.0
  9
$DIMEXE
 40
0.18
  9
$DIMTP
 40
0.0
  9
$DIMTM
 40
0.0
  9
$DIMTXT
 40
0.18
  9
$DIMCEN
 40
0.09
  9
$DIMTSZ
 40
0.0
  9
$DIMTOL
 70
     0
  9
$DIMLIM
 70
     0
  9
$DIMTIH
 70
     0
  9
$DIMTOH
 70
     0
  9
$DIMSE1
 70
     0
  9
$DIMSE2
 70
     0
  9
$DIMTAD
 70
     1
  9
$DIMZIN
 70
     0
  9
$DIMBLK
  1

  9
$DIMASO
 70
     1
  9
$DIMSHO
 70
     1
  9
$DIMPOST
  1

  9
$DIMAPOST
  1

  9
$DIMALT
 70
     0
  9
$DIMALTD
 70
     2
  9
$DIMALTF
 40
25.4
  9
$DIMLFAC
 40
1.0
  9
$DIMTOFL
 70
     0
  9
$DIMTVP
 40
0.0
  9
$DIMTIX
 70
     0
  9
$DIMSOXD
 70
     0
  9
$DIMSAH
 70
     0
  9
$DIMBLK1
  1

  9
$DIMBLK2
  1

  9
$DIMSTYLE
  2
STANDARD
  9
$DIMCLRD
 70
     0
  9
$DIMCLRE
 70
     0
  9
$DIMCLRT
 70
     0
  9
$DIMTFAC
 40
1.0
  9
$DIMGAP
 40
0.09
  9
$DIMJUST
 70
     0
  9
$DIMSD1
 70
     0
  9
$DIMSD2
 70
     0
  9
$DIMTOLJ
 70
     1
  9
$DIMTZIN
 70
     0
  9
$DIMALTZ
 70
     0
  9
$DIMALTTZ
 70
     0
  9
$DIMFIT
 70
     3
  9
$DIMUPT
 70
     0
  9
$DIMUNIT
 70
     2
  9
$DIMDEC
 70
     2
  9
$DIMTDEC
 70
     4
  9
$DIMALTU
 70
     2
  9
$DIMALTTD
 70
     2
  9
$DIMTXSTY
  7
STANDARD
  9
$DIMAUNIT
 70
     0
  9
$LUNITS
 70
     2
  9
$LUPREC
 70
     4
  9
$SKETCHINC
 40
0.1
  9
$FILLETRAD
 40
0.5
  9
$AUNITS
 70
     0
  9
$AUPREC
 70
     0
  9
$MENU
  1
.
  9
$ELEVATION
 40
0.0
  9
$PELEVATION
 40
0.0
  9
$THICKNESS
 40
0.0
  9
$LIMCHECK
 70
     0
  9
$BLIPMODE
 70
     0
  9
$CHAMFERA
 40
0.5
  9
$CHAMFERB
 40
0.5
  9
$CHAMFERC
 40
1.0
  9
$CHAMFERD
 40
0.0
  9
$SKPOLY
 70
     0
  9
$TDCREATE
 40
2450772.666465926
  9
$TDUPDATE
 40
2457586.664328692
  9
$TDINDWG
 40
0.0011564931
  9
$TDUSRTIMER
 40
0.0000000000
  9
$USRTIMER
 70
     1
  9
$ANGBASE
 50
0.0
  9
$ANGDIR
 70
     0
  9
$PDMODE
 70
     0
  9
$PDSIZE
 40
0.0
  9
$PLINEWID
 40
0.0
  9
$COORDS
 70
     1
  9
$SPLFRAME
 70
     0
  9
$SPLINETYPE
 70
     6
  9
$SPLINESEGS
 70
     8
  9
$ATTDIA
 70
     0
  9
$ATTREQ
 70
     1
  9
$HANDLING
 70
     1
  9
$HANDSEED
  5
F5
  9
$SURFTAB1
 70
     6
  9
$SURFTAB2
 70
     6
  9
$SURFTYPE
 70
     6
  9
$SURFU
 70
     6
  9
$SURFV
 70
     6
  9
$UCSNAME
  2

  9
$UCSORG
 10
0.0
 20
0.0
 30
0.0
  9
$UCSXDIR
 10
1.0
 20
0.0
 30
0.0
  9
$UCSYDIR
 10
0.0
 20
1.0
 30
0.0
  9
$PUCSNAME
  2

  9
$PUCSORG
 10
0.0
 20
0.0
 30
0.0
  9
$PUCSXDIR
 10
1.0
 20
0.0
 30
0.0
  9
$PUCSYDIR
 10
0.0
 20
1.0
 30
0.0
  9
$USERI1
 70
     0
  9
$USERI2
 70
     0
  9
$USERI3
 70
     0
  9
$USERI4
 70
     0
  9
$USERI5
 70
     0
  9
$USERR1
 40
0.0
  9
$USERR2
 40
0.0
  9
$USERR3
 40
0.0
  9
$USERR4
 40
0.0
  9
$USERR5
 40
0.0
  9
$WORLDVIEW
 70
     1
  9
$SHADEDGE
 70
     3
  9
$SHADEDIF
 70
    70
  9
$TILEMODE
 70
     1
  9
$MAXACTVP
 70
    48
  9
$PINSBASE
 10
0.0
 20
0.0
 30
0.0
  9
$PLIMCHECK
 70
     0
  9
$PEXTMIN
 10
0.0
 20
0.0
 30
0.0
  9
$PEXTMAX
 10
0.0
 20
0.0
 30
0.0
  9
$PLIMMIN
 10
0.0
 20
0.0
  9
$PLIMMAX
 10
12.0
 20
9.0
  9
$UNITMODE
 70
     0
  9
$VISRETAIN
 70
     1
  9
$PLINEGEN
 70
     0
  9
$PSLTSCALE
 70
     1
  9
$TREEDEPTH
 70
  3020
  9
$PICKSTYLE
 70
     1
  9
$CMLSTYLE
  2
STANDARD
  9
$CMLJUST
 70
     0
  9
$CMLSCALE
 40
1.0
  9
$PROXYGRAPHICS
 70
     1
  9
$MEASUREMENT
 70
     0
  0
ENDSEC
  0
SECTION
  2
CLASSES
  0
CLASS
  1
LWPOLYLINE
  2
AcDbPolyline
  3
"AutoCAD"
 90
        0
280
     0
281
     1
  0
CLASS
  1
IMAGE
  2
AcDbRasterImage
  3
ISM
 90
      127
280
     0
281
     1
  0
CLASS
  1
OLE2FRAME
  2
AcDbOle2Frame
  3
""
 90
        0
280
     0
281
     1
  0
CLASS
  1
HATCH
  2
AcDbHatch
  3
"ACAD_SEDONA"
 90
        0
280
     0
281
     1
  0
CLASS
  1
DICTIONARYVAR
  2
AcDbDictionaryVar
  3
"AutoCAD"
 90
        0
280
     0
281
     0
  0
CLASS
  1
RASTERVARIABLES
  2
AcDbRasterVariables
  3
ISM
 90
        0
280
     0
281
     0
  0
CLASS
  1
IMAGEDEF
  2
AcDbRasterImageDef
  3
ISM
 90
        0
280
     0
281
     0
  0
CLASS
  1
IMAGEDEF_REACTOR
  2
AcDbRasterImageDefReactor
  3
ISM
 90
        1
280
     0
281
     0
  0
CLASS
  1
IDBUFFER
  2
AcDbIdBuffer
  3
"Acad"
 90
        0
280
     0
281
     0
  0
CLASS
  1
SPATIAL_FILTER
  2
AcDbSpatialFilter
  3
"Acad"
 90
        0
280
     0
281
     0
  0
CLASS
  1
XRECORD
  2
AcDbXrecord
  3
"<Built In>"
 90
        0
280
     0
281
     0
  0
CLASS
  1
SORTENTSTABLE
  2
AcDbSortentsTable
  3
"AutoCAD"
 90
        0
280
     0
281
     0
  0
CLASS
  1
LAYER_INDEX
  2
AcDbLayerIndex
  3
"Acad"
 90
        0
280
     0
281
     0
  0
CLASS
  1
SPATIAL_INDEX
  2
AcDbSpatialIndex
  3
"Acad"
 90
        0
280
     0
281
     0
  0
CLASS
  1
OBJECT_PTR
  2
CAseDLPNTableRecord
  3
"ASE-LPNTableRecord"
 90
        1
280
     0
281
     0
  0
CLASS
  1
LAYOUT
  2
AcDbLayout
  3
"AutoCAD 2000"
 90
        1
280
     0
281
     0
  0
CLASS
  1
PLOTSETTINGS
  2
AcDbPlotSettings
  3
"AutoCAD 2000"
 90
        1
280
     0
281
     0
  0
CLASS
  1
ACDBDICTIONARYWDFLT
  2
AcDbDictionaryWithDefault
  3
"AutoCAD 2000"
 90
        1
280
     0
281
     0
  0
CLASS
  1
ACDBPLACEHOLDER
  2
AcDbPlaceHolder
  3
"AutoCAD 2000"
 90
        1
280
     0
281
     0
  0
CLASS
  1
VBA_PROJECT
  2
AcDbVbaProject
  3
"acadvba"
 90
        1
280
     0
281
     0
  0
CLASS
  1
WIPEOUT
  2
AcDbWipeout
  3
WipeOut|AutoCAD Express Tool|expresstools@autodesk.com
 90
      127
280
     0
281
     1
  0
CLASS
  1
WIPEOUTVARIABLES
  2
AcDbWipeoutVariables
  3
WipeOut|AutoCAD Express Tool|expresstools@autodesk.com
 90
        0
280
     0
281
     0
  0
CLASS
  1
RTEXT
  2
RText
  3
RText|AutoCAD Express Tool|expresstools@autodesk.com
 90
        0
280
     0
281
     1
  0
CLASS
  1
ARCALIGNEDTEXT
  2
AcDbArcAlignedText
  3
ATEXT|AutoCAD Express Tool|expresstools@autodesk.com
 90
        0
280
     0
281
     1
  0
ENDSEC
  0
SECTION
  2
TABLES
  0
TABLE
  2
VPORT
  5
8
100
AcDbSymbolTable
 70
     1
  0
VPORT
  5
25
100
AcDbSymbolTableRecord
100
AcDbViewportTableRecord
  2
*ACTIVE
 70
     0
 10
0.0
 20
0.0
 11
1.0
 21
1.0
 12
420.5
 22
297.0
 13
0.0
 23
0.0
 14
0.5
 24
0.5
 15
0.5
 25
0.5
 16
0.0
 26
0.0
 36
1.0
 17
0.0
 27
0.0
 37
0.0
 40
594.0
 41
1.415825
 42
50.0
 43
0.0
 44
0.0
 50
0.0
 51
0.0
 71
     0
 72
   100
 73
     1
 74
     1
 75
     0
 76
     0
 77
     0
 78
     0
  0
ENDTAB
  0
TABLE
  2
LTYPE
  5
5
100
AcDbSymbolTable
 70
     3
  0
LTYPE
  5
12
100
AcDbSymbolTableRecord
100
AcDbLinetypeTableRecord
  2
BYBLOCK
 70
    64
  3

 72
    65
 73
     0
 40
0.0
  0
LTYPE
  5
13
100
AcDbSymbolTableRecord
100
AcDbLinetypeTableRecord
  2
BYLAYER
 70
    64
  3

 72
    65
 73
     0
 40
0.0
  0
LTYPE
  5
14
100
AcDbSymbolTableRecord
100
AcDbLinetypeTableRecord
  2
CONTINUOUS
 70
     0
  3
Solid line
 72
    65
 73
     0
 40
0.0
  0
ENDTAB
  0
TABLE
  2
LAYER
  5
2
100
AcDbSymbolTable
 70
     1
  0
LAYER
  5
E
100
AcDbSymbolTableRecord
100
AcDbLayerTableRecord
  2
0
 70
     0
 62
     7
  6
CONTINUOUS
  0
ENDTAB
  0
TABLE
  2
STYLE
  5
3
100
AcDbSymbolTable
 70
     1
  0
STYLE
  5
F
100
AcDbSymbolTableRecord
100
AcDbTextStyleTableRecord
  2
STANDARD
 70
     0
 40
0.0
 41
1.0
 50
0.0
 71
     0
 42
0.2
  3
txt.shx
  4

  0
ENDTAB
  0
TABLE
  2
VIEW
  5
6
100
AcDbSymbolTable
 70
     0
  0
ENDTAB
  0
TABLE
  2
UCS
  5
7
100
AcDbSymbolTable
 70
     0
  0
ENDTAB
  0
TABLE
  2
APPID
  5
9
100
AcDbSymbolTable
 70
     1
  0
APPID
  5
10
100
AcDbSymbolTableRecord
100
AcDbRegAppTableRecord
  2
ACAD
 70
     0
  0
ENDTAB
  0
TABLE
  2
DIMSTYLE
  5
A
100
AcDbSymbolTable
 70
     1
  0
DIMSTYLE
105
1D
100
AcDbSymbolTableRecord
100
AcDbDimStyleTableRecord
  2
STANDARD
 70
     0
  3

  4

  5

  6

  7

 40
1.0
 41
0.18
 42
0.0625
 43
0.38
 44
0.18
 45
0.0
 46
0.0
 47
0.0
 48
0.0
 71
     0
 72
     0
 73
     1
 74
     1
 75
     0
 76
     0
 77
     0
 78
     0
140
0.18
141
0.09
142
0.0
143
25.4
144
1.0
145
0.0
146
1.0
147
0.09
170
     0
171
     2
172
     0
173
     0
174
     0
175
     0
176
     0
177
     0
178
     0
270
     2
271
     4
272
     4
273
     2
274
     2
275
     0
280
     0
281
     0
282
     0
283
     1
284
     0
285
     0
286
     0
287
     3
288
     0
340
F
  0
ENDTAB
  0
TABLE
  2
BLOCK_RECORD
  5
1
100
AcDbSymbolTable
 70
     7
  0
BLOCK_RECORD
  5
18
100
AcDbSymbolTableRecord
100
AcDbBlockTableRecord
  2
*MODEL_SPACE
  0
BLOCK_RECORD
  5
15
100
AcDbSymbolTableRecord
100
AcDbBlockTableRecord
  2
*PAPER_SPACE
  0
BLOCK_RECORD
  5
D1
100
AcDbSymbolTableRecord
100
AcDbBlockTableRecord
  2
RECTANGLE
  0
BLOCK_RECORD
  5
D6
100
AcDbSymbolTableRecord
100
AcDbBlockTableRecord
  2
CIRCLE
  0
BLOCK_RECORD
  5
DB
100
AcDbSymbolTableRecord
100
AcDbBlockTableRecord
  2
ROUNDED_RECTANGLE
  0
BLOCK_RECORD
  5
E0
100
AcDbSymbolTableRecord
100
AcDbBlockTableRecord
  2
SQUARE
  0
BLOCK_RECORD
  5
E5
100
AcDbSymbolTableRecord
100
AcDbBlockTableRecord
  2
CENTER_DRAG_CIRCLE
  0
BLOCK_RECORD
  5
EA
100
AcDbSymbolTableRecord
100
AcDbBlockTableRecord
  2
ELLIPSE
  0
BLOCK_RECORD
  5
F0
100
AcDbSymbolTableRecord
100
AcDbBlockTableRecord
  2
TRIANGLE
  0
ENDTAB
  0
ENDSEC
  0
SECTION
  2
BLOCKS
  0
BLOCK
  5
19
100
AcDbEntity
  8
0
100
AcDbBlockBegin
  2
*MODEL_SPACE
 70
     0
 10
0.0
 20
0.0
 30
0.0
  3
*MODEL_SPACE
  1

  0
ENDBLK
  5
1A
100
AcDbEntity
  8
0
100
AcDbBlockEnd
  0
BLOCK
  5
16
100
AcDbEntity
 67
     1
  8
0
100
AcDbBlockBegin
  2
*PAPER_SPACE
 70
     0
 10
0.0
 20
0.0
 30
0.0
  3
*PAPER_SPACE
  1

  0
ENDBLK
  5
17
100
AcDbEntity
 67
     1
  8
0
100
AcDbBlockEnd
  0
BLOCK
  5
D2
100
AcDbEntity
  8
0
100
AcDbBlockBegin
  2
RECTANGLE
 70
     0
 10
0.0
 20
0.0
 30
0.0
  3
RECTANGLE
  1

  0
LWPOLYLINE
  5
D3
102
{ACAD_REACTORS
330
D4
102
}
100
AcDbEntity
  8
0
  6
CONTINUOUS
 62
     7
100
AcDbPolyline
 90
        4
 70
     1
 10
30.0
 20
35.0
 10
70.0
 20
35.0
 10
70.0
 20
65.0
 10
30.0
 20
65.0
  0
HATCH
  5
D4
100
AcDbEntity
  8
0
 62
   254
100
AcDbHatch
 10
0.0
 20
0.0
 30
0.0
210
0.0
220
0.0
230
1.0
  2
SOLID
 70
     1
 71
     1
 91
        1
 92
        3
 72
     0
 73
     1
 93
        4
 10
30.0
 20
35.0
 10
70.0
 20
35.0
 10
70.0
 20
65.000000000000014
 10
30.0
 20
65.000000000000014
 97
        1
330
D3
 75
     0
 76
     1
 98
        0
  0
ENDBLK
  5
D5
100
AcDbEntity
  8
0
100
AcDbBlockEnd
  0
BLOCK
  5
D7
100
AcDbEntity
  8
0
100
AcDbBlockBegin
  2
CIRCLE
 70
     0
 10
0.0
 20
0.0
 30
0.0
  3
CIRCLE
  1

  0
LWPOLYLINE
  5
D8
102
{ACAD_REACTORS
330
D9
102
}
100
AcDbEntity
  8
0
  6
CONTINUOUS
 62
     7
100
AcDbPolyline
 90
        2
 70
     1
 10
30.0
 20
50.0
 42
-1.0
 10
70.0
 20
50.0
 42
-1.0
  0
HATCH
  5
D9
100
AcDbEntity
  8
0
 62
   254
100
AcDbHatch
 10
0.0
 20
0.0
 30
0.0
210
0.0
220
0.0
230
1.0
  2
SOLID
 70
     1
 71
     1
 91
        1
 92
        3
 72
     1
 73
     1
 93
        2
 10
30.000000000000004
 20
50.0
 42
-0.9999999999999999
 10
70.0
 20
50.0
 42
-1.0000000000000071
 97
        1
330
D8
 75
     0
 76
     1
 98
        0
  0
ENDBLK
  5
DA
100
AcDbEntity
  8
0
100
AcDbBlockEnd
  0
BLOCK
  5
DC
100
AcDbEntity
  8
0
100
AcDbBlockBegin
  2
ROUNDED_RECTANGLE
 70
     0
 10
0.0
 20
0.0
 30
0.0
  3
ROUNDED_RECTANGLE
  1

  0
LWPOLYLINE
  5
DD
102
{ACAD_REACTORS
330
DE
102
}
100
AcDbEntity
  8
0
  6
CONTINUOUS
 62
     7
100
AcDbPolyline
 90
        8
 70
     1
 10
65.0
 20
35.0
 42
0.414209
 10
70.0
 20
40.0
 10
70.0
 20
60.0
 42
0.414209
 10
65.0
 20
65.0
 10
35.0
 20
65.0
 42
0.414209
 10
30.0
 20
60.0
 10
30.0
 20
40.0
 42
0.414209
 10
35.0
 20
35.0
  0
HATCH
  5
DE
100
AcDbEntity
  8
0
 62
   254
100
AcDbHatch
 10
0.0
 20
0.0
 30
0.0
210
0.0
220
0.0
230
1.0
  2
SOLID
 70
     1
 71
     1
 91
        1
 92
        3
 72
     1
 73
     1
 93
        8
 10
65.000000093999986
 20
35.0
 42
0.4142090102834559
 10
70.0
 20
39.999999905999999
 42
0.0
 10
70.0
 20
60.000000093999994
 42
0.4142090102834552
 10
65.000000093999986
 20
65.000000000000014
 42
0.0
 10
34.999999905999999
 20
65.0
 42
0.414209010283455
 10
30.0
 20
60.000000094000001
 42
0.0
 10
30.0
 20
39.999999905999992
 42
0.4142090102834558
 10
34.999999905999999
 20
35.0
 42
0.0
 97
        1
330
DD
 75
     0
 76
     1
 98
        0
  0
ENDBLK
  5
DF
100
AcDbEntity
  8
0
100
AcDbBlockEnd
  0
BLOCK
  5
E1
100
AcDbEntity
  8
0
100
AcDbBlockBegin
  2
SQUARE
 70
     0
 10
0.0
 20
0.0
 30
0.0
  3
SQUARE
  1

  0
LWPOLYLINE
  5
E2
102
{ACAD_REACTORS
330
E3
102
}
100
AcDbEntity
  8
0
  6
CONTINUOUS
 62
     7
100
AcDbPolyline
 90
        4
 70
     1
 10
30.0
 20
30.0
 10
70.0
 20
30.0
 10
70.0
 20
70.0
 10
30.0
 20
70.0
  0
HATCH
  5
E3
100
AcDbEntity
  8
0
 62
   254
100
AcDbHatch
 10
0.0
 20
0.0
 30
0.0
210
0.0
220
0.0
230
1.0
  2
SOLID
 70
     1
 71
     1
 91
        1
 92
        3
 72
     0
 73
     1
 93
        4
 10
30.0
 20
30.0
 10
70.0
 20
30.0
 10
70.0
 20
70.0
 10
30.0
 20
70.0
 97
        1
330
E2
 75
     0
 76
     1
 98
        0
  0
ENDBLK
  5
E4
100
AcDbEntity
  8
0
100
AcDbBlockEnd
  0
BLOCK
  5
E6
100
AcDbEntity
  8
0
100
AcDbBlockBegin
  2
CENTER_DRAG_CIRCLE
 70
     0
 10
0.0
 20
0.0
 30
0.0
  3
CENTER_DRAG_CIRCLE
  1

  0
LWPOLYLINE
  5
E7
102
{ACAD_REACTORS
330
E8
102
}
100
AcDbEntity
  8
0
  6
CONTINUOUS
 62
     7
100
AcDbPolyline
 90
        2
 70
     1
 10
28.75
 20
50.0
 42
-1.0
 10
68.75
 20
50.0
 42
-1.0
  0
HATCH
  5
E8
100
AcDbEntity
  8
0
 62
   254
100
AcDbHatch
 10
0.0
 20
0.0
 30
0.0
210
0.0
220
0.0
230
1.0
  2
SOLID
 70
     1
 71
     1
 91
        1
 92
        3
 72
     1
 73
     1
 93
        2
 10
28.749999999999996
 20
50.0
 42
-0.9999999999999999
 10
68.749999999999986
 20
50.0
 42
-1.0000000000000071
 97
        1
330
E7
 75
     0
 76
     1
 98
        0
  0
ENDBLK
  5
E9
100
AcDbEntity
  8
0
100
AcDbBlockEnd
  0
BLOCK
  5
EB
100
AcDbEntity
  8
0
100
AcDbBlockBegin
  2
ELLIPSE
 70
     0
 10
0.0
 20
0.0
 30
0.0
  3
ELLIPSE
  1

  0
ELLIPSE
  5
EC
102
{ACAD_REACTORS
330
EE
102
}
100
AcDbEntity
  8
0
  6
CONTINUOUS
 62
     7
100
AcDbEllipse
 10
52.5
 20
47.5
 30
0.0
 11
30.000000000000007
 21
0.0
 31
0.0
210
0.0
220
0.0
230
1.0
 40
0.666667
 41
0.0000000000000006
 42
3.1415926535897927
  0
ELLIPSE
  5
ED
102
{ACAD_REACTORS
330
EE
102
}
100
AcDbEntity
  8
0
  6
CONTINUOUS
 62
     7
100
AcDbEllipse
 10
52.5
 20
47.5
 30
0.0
 11
30.0
 21
0.0
 31
0.0
210
0.0
220
0.0
230
1.0
 40
0.666667
 41
3.1415926535897931
 42
6.2831853071796004
  0
HATCH
  5
EE
100
AcDbEntity
  8
0
 62
   254
100
AcDbHatch
 10
0.0
 20
0.0
 30
0.0
210
0.0
220
0.0
230
1.0
  2
SOLID
 70
     1
 71
     1
 91
        1
 92
        1
 93
        2
 72
     3
 10
52.499999999999993
 20
47.499999999999979
 11
30.000000000000007
 21
0.0
 40
0.666667
 50
540.0
 51
360.0
 73
     0
 72
     3
 10
52.500000000000007
 20
47.499999999999993
 11
30.0
 21
0.0
 40
0.666667
 50
360.0
 51
540.0
 73
     0
 97
        2
330
EC
330
ED
 75
     0
 76
     1
 98
        0
  0
ENDBLK
  5
EF
100
AcDbEntity
  8
0
100
AcDbBlockEnd
  0
BLOCK
  5
F1
100
AcDbEntity
  8
0
100
AcDbBlockBegin
  2
TRIANGLE
 70
     0
 10
0.0
 20
0.0
 30
0.0
  3
TRIANGLE
  1

  0
LWPOLYLINE
  5
F2
102
{ACAD_REACTORS
330
F3
102
}
100
AcDbEntity
  8
0
  6
CONTINUOUS
 62
     7
100
AcDbPolyline
 90
        3
 70
     1
 10
73.094011
 20
30.0
 10
50.0
 20
70.0
 10
26.905989
 20
30.0
  0
HATCH
  5
F3
100
AcDbEntity
  8
0
 62
   254
100
AcDbHatch
 10
0.0
 20
0.0
 30
0.0
210
0.0
220
0.0
230
1.0
  2
SOLID
 70
     1
 71
     1
 91
        1
 92
        3
 72
     0
 73
     1
 93
        3
 10
73.094010666668012
 20
29.999999999999797
 10
50.0
 20
69.999999999999787
 10
26.905989333333199
 20
29.999999999999797
 97
        1
330
F2
 75
     0
 76
     1
 98
        0
  0
ENDBLK
  5
F4
100
AcDbEntity
  8
0
100
AcDbBlockEnd
  0
ENDSEC
  0
SECTION
  2
ENTITIES
  0
LWPOLYLINE
  5
31
100
AcDbEntity
  8
0
  6
CONTINUOUS
 62
     7
100
AcDbPolyline
 90
       16
 70
     1
 10
360.0
 20
169.0
 10
360.0
 20
170.0
 42
0.414214
 10
340.0
 20
190.0
 10
312.0
 20
190.0
 10
248.261472
 20
190.0
 42
0.407203
 10
240.263775
 20
182.191945
 10
240.002303
 20
171.297258
 42
0.005999
 10
240.0
 20
171.105313
 10
240.0
 20
138.0
 42
0.414214
 10
248.0
 20
130.0
 10
340.0
 20
130.0
 42
0.414214
 10
360.0
 20
150.0
 10
360.0
 20
151.0
 10
312.0
 20
151.0
 10
312.0
 20
163.36039
 10
312.43989
 20
169.0
  0
MTEXT
  5
32
100
AcDbEntity
  8
0
100
AcDbMText
 10
300.0
 20
160.0
 30
0.0
 40
2.054647
 41
120.0
 71
     5
 72
     5
  1
\C7;\fArial|b0|i0|;\H2.0546471100301; 
  0
LWPOLYLINE
  5
33
100
AcDbEntity
  8
0
  6
CONTINUOUS
 62
     7
100
AcDbPolyline
 90
        4
 70
     1
 10
10.0
 20
90.0
 10
810.0
 20
90.0
 10
810.0
 20
490.0
 10
10.0
 20
490.0
  0
LWPOLYLINE
  5
35
102
{ACAD_REACTORS
330
34
102
}
100
AcDbEntity
  8
0
  6
CONTINUOUS
 62
     7
100
AcDbPolyline
 90
        2
 70
     1
 10
520.75
 20
418.25
 42
-1.0
 10
523.75
 20
418.25
 42
-1.0
  0
LWPOLYLINE
  5
36
102
{ACAD_REACTORS
330
34
102
}
100
AcDbEntity
  8
0
  6
CONTINUOUS
 62
     7
100
AcDbPolyline
 90
        2
 70
     1
 10
474.25
 20
418.25
 42
-1.0
 10
477.25
 20
418.25
 42
-1.0
  0
LWPOLYLINE
  5
37
102
{ACAD_REACTORS
330
34
102
}
100
AcDbEntity
  8
0
  6
CONTINUOUS
 62
     7
100
AcDbPolyline
 90
        2
 70
     1
 10
394.5
 20
418.25
 42
-1.0
 10
397.5
 20
418.25
 42
-1.0
  0
LWPOLYLINE
  5
38
102
{ACAD_REACTORS
330
34
102
}
100
AcDbEntity
  8
0
  6
CONTINUOUS
 62
     7
100
AcDbPolyline
 90
        2
 70
     1
 10
348.0
 20
418.25
 42
-1.0
 10
351.0
 20
418.25
 42
-1.0
  0
LWPOLYLINE
  5
39
102
{ACAD_REACTORS
330
34
102
}
100
AcDbEntity
  8
0
  6
CONTINUOUS
 62
     7
100
AcDbPolyline
 90
        2
 70
     1
 10
647.0
 20
418.25
 42
-1.0
 10
650.0
 20
418.25
 42
-1.0
  0
LWPOLYLINE
  5
3A
102
{ACAD_REACTORS
330
34
102
}
100
AcDbEntity
  8
0
  6
CONTINUOUS
 62
     7
100
AcDbPolyline
 90
        2
 70
     1
 10
600.5
 20
418.25
 42
-1.0
 10
603.5
 20
418.25
 42
-1.0
  0
LWPOLYLINE
  5
3B
102
{ACAD_REACTORS
330
34
102
}
100
AcDbEntity
  8
0
  6
CONTINUOUS
 62
     7
100
AcDbPolyline
 90
       27
 70
     1
 10
702.000643
 20
443.185328
 42
0.272931
 10
698.5
 20
445.25
 10
649.0
 20
445.25
 42
0.32398
 10
645.2
 20
442.499
 42
0.079557
 10
645.1
 20
441.8745
 10
645.1
 20
438.25
 42
-0.414214
 10
640.1
 20
433.25
 10
355.0
 20
433.25
 42
-0.414214
 10
350.0
 20
438.25
 10
350.0
 20
439.912091
 42
0.03732
 10
349.955556
 20
440.506717
 42
-0.03732
 10
349.9
 20
441.25
 42
0.414214
 10
347.9
 20
443.25
 10
337.5
 20
443.25
 42
0.56619
 10
333.970588
 20
437.367647
 42
-0.123106
 10
337.5
 20
423.25
 42
-0.123106
 10
333.970588
 20
409.132353
 42
0.56619
 10
337.5
 20
403.25
 10
644.0
 20
403.25
 42
-0.414214
 10
645.0
 20
402.25
 42
0.414214
 10
646.0
 20
401.25
 10
700.75
 20
401.25
 42
0.414214
 10
702.5
 20
403.0
 10
702.5
 20
403.775658
 42
0.399265
 10
701.551282
 20
404.774342
 42
-0.399265
 10
684.0
 20
423.25
 42
-0.393699
 10
701.195971
 20
441.703984
 42
0.548017
  0
LWPOLYLINE
  5
3C
102
{ACAD_REACTORS
330
34
102
}
100
AcDbEntity
  8
0
  6
CONTINUOUS
 62
     7
100
AcDbPolyline
 90
        2
 70
     1
 10
689.0
 20
438.25
 42
-1.0
 10
686.0
 20
438.25
 42
-1.0
  0
LWPOLYLINE
  5
3D
102
{ACAD_REACTORS
330
34
102
}
100
AcDbEntity
  8
0
  6
CONTINUOUS
 62
     7
100
AcDbPolyline
 90
        2
 70
     1
 10
687.5
 20
409.75
 42
-1.0
 10
687.5
 20
406.75
 42
-1.0
  0
ARC
  5
3F
102
{ACAD_REACTORS
330
3E
102
}
100
AcDbEntity
  8
0
  6
CONTINUOUS
 62
     7
100
AcDbCircle
 10
769.9
 20
263.75
 30
0.0
 40
20.0
100
AcDbArc
 50
354.327359
 51
0.0
  0
LINE
  5
40
102
{ACAD_REACTORS
330
3E
102
}
100
AcDbEntity
  8
0
  6
CONTINUOUS
 62
     7
100
AcDbLine
 10
789.9
 20
263.75
 30
0.0
 11
789.9
 21
279.25
 31
0.0
  0
LINE
  5
41
102
{ACAD_REACTORS
330
3E
102
}
100
AcDbEntity
  8
0
  6
CONTINUOUS
 62
     7
100
AcDbLine
 10
789.9
 20
279.25
 30
0.0
 11
790.0
 21
279.25
 31
0.0
  0
LINE
  5
42
102
{ACAD_REACTORS
330
3E
102
}
100
AcDbEntity
  8
0
  6
CONTINUOUS
 62
     7
100
AcDbLine
 10
790.0
 20
279.25
 30
0.0
 11
790.0
 21
451.25
 31
0.0
  0
ARC
  5
43
102
{ACAD_REACTORS
330
3E
102
}
100
AcDbEntity
  8
0
  6
CONTINUOUS
 62
     7
100
AcDbCircle
 10
770.0
 20
451.25
 30
0.0
 40
20.0
100
AcDbArc
 50
0.0
 51
90.0
  0
LINE
  5
44
102
{ACAD_REACTORS
330
3E
102
}
100
AcDbEntity
  8
0
  6
CONTINUOUS
 62
     7
100
AcDbLine
 10
770.0
 20
471.25
 30
0.0
 11
662.5
 21
471.25
 31
0.0
  0
ARC
  5
45
102
{ACAD_REACTORS
330
3E
102
}
100
AcDbEntity
  8
0
  6
CONTINUOUS
 62
     7
100
AcDbCircle
 10
662.5
 20
453.75
 30
0.0
 40
17.5
100
AcDbArc
 50
90.0
 51
180.0
  0
LINE
  5
46
102
{ACAD_REACTORS
330
3E
102
}
100
AcDbEntity
  8
0
  6
CONTINUOUS
 62
     7
100
AcDbLine
 10
645.0
 20
453.75
 30
0.0
 11
645.0
 21
453.25
 31
0.0
  0
LINE
  5
47
102
{ACAD_REACTORS
330
3E
102
}
100
AcDbEntity
  8
0
  6
CONTINUOUS
 62
     7
100
AcDbLine
 10
645.0
 20
453.25
 30
0.0
 11
742.5
 21
453.25
 31
0.0
  0
ARC
  5
48
102
{ACAD_REACTORS
330
3E
102
}
100
AcDbEntity
  8
0
  6
CONTINUOUS
 62
     7
100
AcDbCircle
 10
742.5
 20
423.25
 30
0.0
 40
30.0
100
AcDbArc
 50
0.0
 51
90.0
  0
ARC
  5
49
102
{ACAD_REACTORS
330
3E
102
}
100
AcDbEntity
  8
0
  6
CONTINUOUS
 62
     7
100
AcDbCircle
 10
742.5
 20
423.25
 30
0.0
 40
30.0
100
AcDbArc
 50
270.0
 51
0.0
  0
LINE
  5
4A
102
{ACAD_REACTORS
330
3E
102
}
100
AcDbEntity
  8
0
  6
CONTINUOUS
 62
     7
100
AcDbLine
 10
742.5
 20
393.25
 30
0.0
 11
307.5
 21
393.25
 31
0.0
  0
ARC
  5
4B
102
{ACAD_REACTORS
330
3E
102
}
100
AcDbEntity
  8
0
  6
CONTINUOUS
 62
     7
100
AcDbCircle
 10
307.5
 20
423.25
 30
0.0
 40
30.0
100
AcDbArc
 50
180.0
 51
270.0
  0
ARC
  5
4C
102
{ACAD_REACTORS
330
3E
102
}
100
AcDbEntity
  8
0
  6
CONTINUOUS
 62
     7
100
AcDbCircle
 10
307.5
 20
423.25
 30
0.0
 40
30.0
100
AcDbArc
 50
90.0
 51
180.0
  0
LINE
  5
4D
102
{ACAD_REACTORS
330
3E
102
}
100
AcDbEntity
  8
0
  6
CONTINUOUS
 62
     7
100
AcDbLine
 10
307.5
 20
453.25
 30
0.0
 11
349.9
 21
453.25
 31
0.0
  0
LINE
  5
4E
102
{ACAD_REACTORS
330
3E
102
}
100
AcDbEntity
  8
0
  6
CONTINUOUS
 62
     7
100
AcDbLine
 10
349.9
 20
453.25
 30
0.0
 11
349.9
 21
456.25
 31
0.0
  0
ARC
  5
4F
102
{ACAD_REACTORS
330
3E
102
}
100
AcDbEntity
  8
0
  6
CONTINUOUS
 62
     7
100
AcDbCircle
 10
329.9
 20
456.25
 30
0.0
 40
20.0
100
AcDbArc
 50
0.0
 51
90.0
  0
LINE
  5
50
102
{ACAD_REACTORS
330
3E
102
}
100
AcDbEntity
  8
0
  6
CONTINUOUS
 62
     7
100
AcDbLine
 10
329.9
 20
476.25
 30
0.0
 11
285.0
 21
476.25
 31
0.0
  0
ARC
  5
51
102
{ACAD_REACTORS
330
3E
102
}
100
AcDbEntity
  8
0
  6
CONTINUOUS
 62
     7
100
AcDbCircle
 10
285.0
 20
456.25
 30
0.0
 40
20.0
100
AcDbArc
 50
90.0
 51
180.0
  0
LINE
  5
52
102
{ACAD_REACTORS
330
3E
102
}
100
AcDbEntity
  8
0
  6
CONTINUOUS
 62
     7
100
AcDbLine
 10
265.0
 20
456.25
 30
0.0
 11
265.0
 21
409.344174
 31
0.0
  0
ARC
  5
53
102
{ACAD_REACTORS
330
3E
102
}
100
AcDbEntity
  8
0
  6
CONTINUOUS
 62
     7
100
AcDbCircle
 10
285.0
 20
409.344174
 30
0.0
 40
20.0
100
AcDbArc
 50
180.0
 51
225.0
  0
LINE
  5
54
102
{ACAD_REACTORS
330
3E
102
}
100
AcDbEntity
  8
0
  6
CONTINUOUS
 62
     7
100
AcDbLine
 10
270.857864
 20
395.202038
 30
0.0
 11
298.952038
 21
367.107864
 31
0.0
  0
LINE
  5
55
102
{ACAD_REACTORS
330
3E
102
}
100
AcDbEntity
  8
0
  6
CONTINUOUS
 62
     7
100
AcDbLine
 10
298.952038
 20
367.107864
 30
0.0
 11
306.089367
 21
360.0
 31
0.0
  0
LINE
  5
56
102
{ACAD_REACTORS
330
3E
102
}
100
AcDbEntity
  8
0
  6
CONTINUOUS
 62
     7
100
AcDbLine
 10
306.089367
 20
360.0
 30
0.0
 11
348.0
 21
360.0
 31
0.0
  0
LINE
  5
57
102
{ACAD_REACTORS
330
3E
102
}
100
AcDbEntity
  8
0
  6
CONTINUOUS
 62
     7
100
AcDbLine
 10
348.0
 20
360.0
 30
0.0
 11
348.0
 21
350.5
 31
0.0
  0
LINE
  5
58
102
{ACAD_REACTORS
330
3E
102
}
100
AcDbEntity
  8
0
  6
CONTINUOUS
 62
     7
100
AcDbLine
 10
348.0
 20
350.5
 30
0.0
 11
315.628748
 21
350.5
 31
0.0
  0
LINE
  5
59
102
{ACAD_REACTORS
330
3E
102
}
100
AcDbEntity
  8
0
  6
CONTINUOUS
 62
     7
100
AcDbLine
 10
315.628748
 20
350.5
 30
0.0
 11
340.594854
 21
325.63696
 31
0.0
  0
ARC
  5
5A
102
{ACAD_REACTORS
330
3E
102
}
100
AcDbEntity
  8
0
  6
CONTINUOUS
 62
     7
100
AcDbCircle
 10
353.094174
 20
341.25
 30
0.0
 40
20.0
100
AcDbArc
 50
231.320309
 51
270.0
  0
LINE
  5
5B
102
{ACAD_REACTORS
330
3E
102
}
100
AcDbEntity
  8
0
  6
CONTINUOUS
 62
     7
100
AcDbLine
 10
353.094174
 20
321.25
 30
0.0
 11
375.0
 21
321.25
 31
0.0
  0
LINE
  5
5C
102
{ACAD_REACTORS
330
3E
102
}
100
AcDbEntity
  8
0
  6
CONTINUOUS
 62
     7
100
AcDbLine
 10
375.0
 20
321.25
 30
0.0
 11
375.0
 21
321.35
 31
0.0
  0
LINE
  5
5D
102
{ACAD_REACTORS
330
3E
102
}
100
AcDbEntity
  8
0
  6
CONTINUOUS
 62
     7
100
AcDbLine
 10
375.0
 20
321.35
 30
0.0
 11
390.0
 21
321.35
 31
0.0
  0
ARC
  5
5E
102
{ACAD_REACTORS
330
3E
102
}
100
AcDbEntity
  8
0
  6
CONTINUOUS
 62
     7
100
AcDbCircle
 10
390.0
 20
341.35
 30
0.0
 40
20.0
100
AcDbArc
 50
270.0
 51
359.71352
  0
ARC
  5
5F
102
{ACAD_REACTORS
330
3E
102
}
100
AcDbEntity
  8
0
  6
CONTINUOUS
 62
     7
100
AcDbCircle
 10
430.000177
 20
341.249573
 30
0.0
 40
20.000427
100
AcDbArc
 50
90.000506
 51
179.998777
  0
LINE
  5
60
102
{ACAD_REACTORS
330
3E
102
}
100
AcDbEntity
  8
0
  6
CONTINUOUS
 62
     7
100
AcDbLine
 10
430.0
 20
361.25
 30
0.0
 11
625.0
 21
361.25
 31
0.0
  0
ARC
  5
61
102
{ACAD_REACTORS
330
3E
102
}
100
AcDbEntity
  8
0
  6
CONTINUOUS
 62
     7
100
AcDbCircle
 10
625.0
 20
341.25
 30
0.0
 40
20.0
100
AcDbArc
 50
0.0
 51
90.0
  0
LINE
  5
62
102
{ACAD_REACTORS
330
3E
102
}
100
AcDbEntity
  8
0
  6
CONTINUOUS
 62
     7
100
AcDbLine
 10
645.0
 20
341.25
 30
0.0
 11
645.0
 21
263.75
 31
0.0
  0
ARC
  5
63
102
{ACAD_REACTORS
330
3E
102
}
100
AcDbEntity
  8
0
  6
CONTINUOUS
 62
     7
100
AcDbCircle
 10
665.0
 20
263.75
 30
0.0
 40
20.0
100
AcDbArc
 50
180.0
 51
181.432096
  0
ARC
  5
64
102
{ACAD_REACTORS
330
3E
102
}
100
AcDbEntity
  8
0
  6
CONTINUOUS
 62
     7
100
AcDbCircle
 10
665.0
 20
263.75
 30
0.0
 40
20.0
100
AcDbArc
 50
181.432096
 51
183.019238
  0
ELLIPSE
  5
65
102
{ACAD_REACTORS
330
3E
102
}
100
AcDbEntity
  8
0
  6
CONTINUOUS
 62
     7
100
AcDbEllipse
 10
717.5
 20
263.25
 30
0.0
 11
72.500000000000867
 21
0.0
 31
0.0
210
0.0
220
0.0
230
1.0
 40
0.275862
 41
-3.1139178676946746
 42
-1.7948716120967301
  0
LINE
  5
66
102
{ACAD_REACTORS
330
3E
102
}
100
AcDbEntity
  8
0
  6
CONTINUOUS
 62
     7
100
AcDbLine
 10
701.390148
 20
243.75
 30
0.0
 11
733.609852
 21
243.75
 31
0.0
  0
ELLIPSE
  5
67
102
{ACAD_REACTORS
330
3E
102
}
100
AcDbEntity
  8
0
  6
CONTINUOUS
 62
     7
100
AcDbEllipse
 10
717.5
 20
263.25
 30
0.0
 11
72.499999999999503
 21
0.0
 31
0.0
210
0.0
220
0.0
230
1.0
 40
0.275862
 41
-1.3467210414931021
 42
-0.0739118772865961
  0
LWPOLYLINE
  5
68
102
{ACAD_REACTORS
330
3E
102
}
100
AcDbEntity
  8
0
  6
CONTINUOUS
 62
     7
100
AcDbPolyline
 90
        2
 70
     1
 10
329.2
 20
464.25
 42
-1.0
 10
332.2
 20
464.25
 42
-1.0
  0
LWPOLYLINE
  5
69
102
{ACAD_REACTORS
330
3E
102
}
100
AcDbEntity
  8
0
  6
CONTINUOUS
 62
     7
100
AcDbPolyline
 90
        2
 70
     1
 10
282.7
 20
464.25
 42
-1.0
 10
285.7
 20
464.25
 42
-1.0
  0
LWPOLYLINE
  5
6A
102
{ACAD_REACTORS
330
3E
102
}
100
AcDbEntity
  8
0
  6
CONTINUOUS
 62
     7
100
AcDbPolyline
 90
       12
 70
     1
 10
675.024704
 20
295.256242
 42
-0.00128
 10
675.01988
 20
295.358493
 42
0.044845
 10
675.1
 20
296.25
 10
675.1
 20
341.25
 42
-0.414214
 10
695.1
 20
361.25
 10
740.0
 20
361.25
 42
-0.399728
 10
759.975296
 20
342.243758
 42
-0.00128
 10
759.98012
 20
342.141507
 42
0.044845
 10
759.9
 20
341.25
 10
759.9
 20
296.25
 42
-0.414214
 10
739.9
 20
276.25
 10
695.0
 20
276.25
 42
-0.399728
  0
LWPOLYLINE
  5
6B
102
{ACAD_REACTORS
330
3E
102
}
100
AcDbEntity
  8
0
  6
CONTINUOUS
 62
     7
100
AcDbPolyline
 90
        2
 70
     1
 10
600.5
 20
377.25
 42
-1.0
 10
603.5
 20
377.25
 42
-1.0
  0
LWPOLYLINE
  5
6C
102
{ACAD_REACTORS
330
3E
102
}
100
AcDbEntity
  8
0
  6
CONTINUOUS
 62
     7
100
AcDbPolyline
 90
        2
 70
     1
 10
647.0
 20
377.25
 42
-1.0
 10
650.0
 20
377.25
 42
-1.0
  0
LWPOLYLINE
  5
6D
102
{ACAD_REACTORS
330
3E
102
}
100
AcDbEntity
  8
0
  6
CONTINUOUS
 62
     7
100
AcDbPolyline
 90
        2
 70
     1
 10
348.0
 20
377.25
 42
-1.0
 10
351.0
 20
377.25
 42
-1.0
  0
LWPOLYLINE
  5
6E
102
{ACAD_REACTORS
330
3E
102
}
100
AcDbEntity
  8
0
  6
CONTINUOUS
 62
     7
100
AcDbPolyline
 90
        2
 70
     1
 10
394.5
 20
377.25
 42
-1.0
 10
397.5
 20
377.25
 42
-1.0
  0
LWPOLYLINE
  5
6F
102
{ACAD_REACTORS
330
3E
102
}
100
AcDbEntity
  8
0
  6
CONTINUOUS
 62
     7
100
AcDbPolyline
 90
        2
 70
     1
 10
474.25
 20
377.25
 42
-1.0
 10
477.25
 20
377.25
 42
-1.0
  0
LWPOLYLINE
  5
70
102
{ACAD_REACTORS
330
3E
102
}
100
AcDbEntity
  8
0
  6
CONTINUOUS
 62
     7
100
AcDbPolyline
 90
        2
 70
     1
 10
520.75
 20
377.25
 42
-1.0
 10
523.75
 20
377.25
 42
-1.0
  0
LWPOLYLINE
  5
71
102
{ACAD_REACTORS
330
3E
102
}
100
AcDbEntity
  8
0
  6
CONTINUOUS
 62
     7
100
AcDbPolyline
 90
        2
 70
     1
 10
348.0
 20
336.25
 42
-1.0
 10
351.0
 20
336.25
 42
-1.0
  0
LWPOLYLINE
  5
72
102
{ACAD_REACTORS
330
3E
102
}
100
AcDbEntity
  8
0
  6
CONTINUOUS
 62
     7
100
AcDbPolyline
 90
        2
 70
     1
 10
394.5
 20
336.25
 42
-1.0
 10
397.5
 20
336.25
 42
-1.0
  0
LWPOLYLINE
  5
73
102
{ACAD_REACTORS
330
3E
102
}
100
AcDbEntity
  8
0
  6
CONTINUOUS
 62
     7
100
AcDbPolyline
 90
        2
 70
     1
 10
692.75
 20
377.25
 42
-1.0
 10
695.75
 20
377.25
 42
-1.0
  0
LWPOLYLINE
  5
74
102
{ACAD_REACTORS
330
3E
102
}
100
AcDbEntity
  8
0
  6
CONTINUOUS
 62
     7
100
AcDbPolyline
 90
        2
 70
     1
 10
739.25
 20
377.25
 42
-1.0
 10
742.25
 20
377.25
 42
-1.0
  0
LWPOLYLINE
  5
75
102
{ACAD_REACTORS
330
3E
102
}
100
AcDbEntity
  8
0
  6
CONTINUOUS
 62
     7
100
AcDbPolyline
 90
        2
 70
     1
 10
692.75
 20
462.25
 42
-1.0
 10
695.75
 20
462.25
 42
-1.0
  0
LWPOLYLINE
  5
76
102
{ACAD_REACTORS
330
3E
102
}
100
AcDbEntity
  8
0
  6
CONTINUOUS
 62
     7
100
AcDbPolyline
 90
        2
 70
     1
 10
739.25
 20
462.25
 42
-1.0
 10
742.25
 20
462.25
 42
-1.0
  0
LWPOLYLINE
  5
77
102
{ACAD_REACTORS
330
3E
102
}
100
AcDbEntity
  8
0
  6
CONTINUOUS
 62
     7
100
AcDbPolyline
 90
        2
 70
     1
 10
692.75
 20
260.25
 42
-1.0
 10
695.75
 20
260.25
 42
-1.0
  0
LWPOLYLINE
  5
78
102
{ACAD_REACTORS
330
3E
102
}
100
AcDbEntity
  8
0
  6
CONTINUOUS
 62
     7
100
AcDbPolyline
 90
        2
 70
     1
 10
739.25
 20
260.25
 42
-1.0
 10
742.25
 20
260.25
 42
-1.0
  0
LWPOLYLINE
  5
79
102
{ACAD_REACTORS
330
3E
102
}
100
AcDbEntity
  8
0
  6
CONTINUOUS
 62
     7
100
AcDbPolyline
 90
        2
 70
     1
 10
660.0
 20
291.75
 42
-1.0
 10
660.0
 20
294.75
 42
-1.0
  0
LWPOLYLINE
  5
7A
102
{ACAD_REACTORS
330
3E
102
}
100
AcDbEntity
  8
0
  6
CONTINUOUS
 62
     7
100
AcDbPolyline
 90
        2
 70
     1
 10
660.0
 20
338.25
 42
-1.0
 10
660.0
 20
341.25
 42
-1.0
  0
LWPOLYLINE
  5
7B
102
{ACAD_REACTORS
330
3E
102
}
100
AcDbEntity
  8
0
  6
CONTINUOUS
 62
     7
100
AcDbPolyline
 90
        2
 70
     1
 10
775.0
 20
291.75
 42
-1.0
 10
775.0
 20
294.75
 42
-1.0
  0
LWPOLYLINE
  5
7C
102
{ACAD_REACTORS
330
3E
102
}
100
AcDbEntity
  8
0
  6
CONTINUOUS
 62
     7
100
AcDbPolyline
 90
        2
 70
     1
 10
775.0
 20
338.25
 42
-1.0
 10
775.0
 20
341.25
 42
-1.0
  0
LWPOLYLINE
  5
7D
102
{ACAD_REACTORS
330
3E
102
}
100
AcDbEntity
  8
0
  6
CONTINUOUS
 62
     7
100
AcDbPolyline
 90
        2
 70
     1
 10
780.0
 20
398.5
 42
-1.0
 10
780.0
 20
401.5
 42
-1.0
  0
LWPOLYLINE
  5
7E
102
{ACAD_REACTORS
330
3E
102
}
100
AcDbEntity
  8
0
  6
CONTINUOUS
 62
     7
100
AcDbPolyline
 90
        2
 70
     1
 10
780.0
 20
445.0
 42
-1.0
 10
780.0
 20
448.0
 42
-1.0
  0
LWPOLYLINE
  5
7F
102
{ACAD_REACTORS
330
3E
102
}
100
AcDbEntity
  8
0
  6
CONTINUOUS
 62
     7
100
AcDbPolyline
 90
        2
 70
     1
 10
275.0
 20
398.5
 42
-1.0
 10
275.0
 20
401.5
 42
-1.0
  0
LWPOLYLINE
  5
80
102
{ACAD_REACTORS
330
3E
102
}
100
AcDbEntity
  8
0
  6
CONTINUOUS
 62
     7
100
AcDbPolyline
 90
        2
 70
     1
 10
275.0
 20
445.0
 42
-1.0
 10
275.0
 20
448.0
 42
-1.0
  0
LWPOLYLINE
  5
82
102
{ACAD_REACTORS
330
81
102
}
100
AcDbEntity
  8
0
  6
CONTINUOUS
 62
     7
100
AcDbPolyline
 90
        2
 70
     1
 10
306.75
 20
282.0
 42
1.0
 10
303.75
 20
282.0
 42
1.0
  0
LWPOLYLINE
  5
83
102
{ACAD_REACTORS
330
81
102
}
100
AcDbEntity
  8
0
  6
CONTINUOUS
 62
     7
100
AcDbPolyline
 90
        2
 70
     1
 10
353.25
 20
282.0
 42
1.0
 10
350.25
 20
282.0
 42
1.0
  0
LWPOLYLINE
  5
84
102
{ACAD_REACTORS
330
81
102
}
100
AcDbEntity
  8
0
  6
CONTINUOUS
 62
     7
100
AcDbPolyline
 90
        2
 70
     1
 10
433.0
 20
282.0
 42
1.0
 10
430.0
 20
282.0
 42
1.0
  0
LWPOLYLINE
  5
85
102
{ACAD_REACTORS
330
81
102
}
100
AcDbEntity
  8
0
  6
CONTINUOUS
 62
     7
100
AcDbPolyline
 90
        2
 70
     1
 10
479.5
 20
282.0
 42
1.0
 10
476.5
 20
282.0
 42
1.0
  0
LWPOLYLINE
  5
86
102
{ACAD_REACTORS
330
81
102
}
100
AcDbEntity
  8
0
  6
CONTINUOUS
 62
     7
100
AcDbPolyline
 90
        2
 70
     1
 10
180.5
 20
282.0
 42
1.0
 10
177.5
 20
282.0
 42
1.0
  0
LWPOLYLINE
  5
87
102
{ACAD_REACTORS
330
81
102
}
100
AcDbEntity
  8
0
  6
CONTINUOUS
 62
     7
100
AcDbPolyline
 90
        2
 70
     1
 10
227.0
 20
282.0
 42
1.0
 10
224.0
 20
282.0
 42
1.0
  0
LWPOLYLINE
  5
88
102
{ACAD_REACTORS
330
81
102
}
100
AcDbEntity
  8
0
  6
CONTINUOUS
 62
     7
100
AcDbPolyline
 90
       27
 70
     1
 10
125.499357
 20
306.935328
 42
-0.272931
 10
129.0
 20
309.0
 10
178.5
 20
309.0
 42
-0.32398
 10
182.3
 20
306.249
 42
-0.079557
 10
182.4
 20
305.6245
 10
182.4
 20
302.0
 42
0.414214
 10
187.4
 20
297.0
 10
472.5
 20
297.0
 42
0.414214
 10
477.5
 20
302.0
 10
477.5
 20
303.662091
 42
-0.03732
 10
477.544444
 20
304.256717
 42
0.03732
 10
477.6
 20
305.0
 42
-0.414214
 10
479.6
 20
307.0
 10
490.0
 20
307.0
 42
-0.56619
 10
493.529412
 20
301.117647
 42
0.123106
 10
490.0
 20
287.0
 42
0.123106
 10
493.529412
 20
272.882353
 42
-0.56619
 10
490.0
 20
267.0
 10
183.5
 20
267.0
 42
0.414214
 10
182.5
 20
266.0
 42
-0.414214
 10
181.5
 20
265.0
 10
126.75
 20
265.0
 42
-0.414214
 10
125.0
 20
266.75
 10
125.0
 20
267.525658
 42
-0.399265
 10
125.948718
 20
268.524342
 42
0.399265
 10
143.5
 20
287.0
 42
0.393699
 10
126.304029
 20
305.453984
 42
-0.548017
  0
LWPOLYLINE
  5
89
102
{ACAD_REACTORS
330
81
102
}
100
AcDbEntity
  8
0
  6
CONTINUOUS
 62
     7
100
AcDbPolyline
 90
        2
 70
     1
 10
138.5
 20
302.0
 42
1.0
 10
141.5
 20
302.0
 42
1.0
  0
LWPOLYLINE
  5
8A
102
{ACAD_REACTORS
330
81
102
}
100
AcDbEntity
  8
0
  6
CONTINUOUS
 62
     7
100
AcDbPolyline
 90
        2
 70
     1
 10
140.0
 20
273.5
 42
1.0
 10
140.0
 20
270.5
 42
1.0
  0
ARC
  5
8C
102
{ACAD_REACTORS
330
8B
102
}
100
AcDbEntity
  8
0
  6
CONTINUOUS
 62
     7
100
AcDbCircle
 10
57.6
 20
127.5
 30
0.0
 40
20.0
100
AcDbArc
 50
180.0
 51
185.672641
  0
LINE
  5
8D
102
{ACAD_REACTORS
330
8B
102
}
100
AcDbEntity
  8
0
  6
CONTINUOUS
 62
     7
100
AcDbLine
 10
37.6
 20
127.5
 30
0.0
 11
37.6
 21
143.0
 31
0.0
  0
LINE
  5
8E
102
{ACAD_REACTORS
330
8B
102
}
100
AcDbEntity
  8
0
  6
CONTINUOUS
 62
     7
100
AcDbLine
 10
37.6
 20
143.0
 30
0.0
 11
37.5
 21
143.0
 31
0.0
  0
LINE
  5
8F
102
{ACAD_REACTORS
330
8B
102
}
100
AcDbEntity
  8
0
  6
CONTINUOUS
 62
     7
100
AcDbLine
 10
37.5
 20
143.0
 30
0.0
 11
37.5
 21
315.0
 31
0.0
  0
ARC
  5
90
102
{ACAD_REACTORS
330
8B
102
}
100
AcDbEntity
  8
0
  6
CONTINUOUS
 62
     7
100
AcDbCircle
 10
57.5
 20
315.0
 30
0.0
 40
20.0
100
AcDbArc
 50
90.0
 51
180.0
  0
LINE
  5
91
102
{ACAD_REACTORS
330
8B
102
}
100
AcDbEntity
  8
0
  6
CONTINUOUS
 62
     7
100
AcDbLine
 10
57.5
 20
335.0
 30
0.0
 11
165.0
 21
335.0
 31
0.0
  0
ARC
  5
92
102
{ACAD_REACTORS
330
8B
102
}
100
AcDbEntity
  8
0
  6
CONTINUOUS
 62
     7
100
AcDbCircle
 10
165.0
 20
317.5
 30
0.0
 40
17.5
100
AcDbArc
 50
0.0
 51
90.0
  0
LINE
  5
93
102
{ACAD_REACTORS
330
8B
102
}
100
AcDbEntity
  8
0
  6
CONTINUOUS
 62
     7
100
AcDbLine
 10
182.5
 20
317.5
 30
0.0
 11
182.5
 21
317.0
 31
0.0
  0
LINE
  5
94
102
{ACAD_REACTORS
330
8B
102
}
100
AcDbEntity
  8
0
  6
CONTINUOUS
 62
     7
100
AcDbLine
 10
182.5
 20
317.0
 30
0.0
 11
85.0
 21
317.0
 31
0.0
  0
ARC
  5
95
102
{ACAD_REACTORS
330
8B
102
}
100
AcDbEntity
  8
0
  6
CONTINUOUS
 62
     7
100
AcDbCircle
 10
85.0
 20
287.0
 30
0.0
 40
30.0
100
AcDbArc
 50
90.0
 51
180.0
  0
ARC
  5
96
102
{ACAD_REACTORS
330
8B
102
}
100
AcDbEntity
  8
0
  6
CONTINUOUS
 62
     7
100
AcDbCircle
 10
85.0
 20
287.0
 30
0.0
 40
30.0
100
AcDbArc
 50
180.0
 51
270.0
  0
LINE
  5
97
102
{ACAD_REACTORS
330
8B
102
}
100
AcDbEntity
  8
0
  6
CONTINUOUS
 62
     7
100
AcDbLine
 10
85.0
 20
257.0
 30
0.0
 11
520.0
 21
257.0
 31
0.0
  0
ARC
  5
98
102
{ACAD_REACTORS
330
8B
102
}
100
AcDbEntity
  8
0
  6
CONTINUOUS
 62
     7
100
AcDbCircle
 10
520.0
 20
287.0
 30
0.0
 40
30.0
100
AcDbArc
 50
270.0
 51
0.0
  0
ARC
  5
99
102
{ACAD_REACTORS
330
8B
102
}
100
AcDbEntity
  8
0
  6
CONTINUOUS
 62
     7
100
AcDbCircle
 10
520.0
 20
287.0
 30
0.0
 40
30.0
100
AcDbArc
 50
0.0
 51
90.0
  0
LINE
  5
9A
102
{ACAD_REACTORS
330
8B
102
}
100
AcDbEntity
  8
0
  6
CONTINUOUS
 62
     7
100
AcDbLine
 10
520.0
 20
317.0
 30
0.0
 11
477.6
 21
317.0
 31
0.0
  0
LINE
  5
9B
102
{ACAD_REACTORS
330
8B
102
}
100
AcDbEntity
  8
0
  6
CONTINUOUS
 62
     7
100
AcDbLine
 10
477.6
 20
317.0
 30
0.0
 11
477.6
 21
320.0
 31
0.0
  0
ARC
  5
9C
102
{ACAD_REACTORS
330
8B
102
}
100
AcDbEntity
  8
0
  6
CONTINUOUS
 62
     7
100
AcDbCircle
 10
497.6
 20
320.0
 30
0.0
 40
20.0
100
AcDbArc
 50
90.0
 51
180.0
  0
LINE
  5
9D
102
{ACAD_REACTORS
330
8B
102
}
100
AcDbEntity
  8
0
  6
CONTINUOUS
 62
     7
100
AcDbLine
 10
497.6
 20
340.0
 30
0.0
 11
542.5
 21
340.0
 31
0.0
  0
ARC
  5
9E
102
{ACAD_REACTORS
330
8B
102
}
100
AcDbEntity
  8
0
  6
CONTINUOUS
 62
     7
100
AcDbCircle
 10
542.5
 20
320.0
 30
0.0
 40
20.0
100
AcDbArc
 50
0.0
 51
90.0
  0
LINE
  5
9F
102
{ACAD_REACTORS
330
8B
102
}
100
AcDbEntity
  8
0
  6
CONTINUOUS
 62
     7
100
AcDbLine
 10
562.5
 20
320.0
 30
0.0
 11
562.5
 21
273.094174
 31
0.0
  0
ARC
  5
A0
102
{ACAD_REACTORS
330
8B
102
}
100
AcDbEntity
  8
0
  6
CONTINUOUS
 62
     7
100
AcDbCircle
 10
542.5
 20
273.094174
 30
0.0
 40
20.0
100
AcDbArc
 50
315.0
 51
0.0
  0
LINE
  5
A1
102
{ACAD_REACTORS
330
8B
102
}
100
AcDbEntity
  8
0
  6
CONTINUOUS
 62
     7
100
AcDbLine
 10
556.642136
 20
258.952038
 30
0.0
 11
528.547962
 21
230.857864
 31
0.0
  0
LINE
  5
A2
102
{ACAD_REACTORS
330
8B
102
}
100
AcDbEntity
  8
0
  6
CONTINUOUS
 62
     7
100
AcDbLine
 10
528.547962
 20
230.857864
 30
0.0
 11
521.410633
 21
223.75
 31
0.0
  0
LINE
  5
A3
102
{ACAD_REACTORS
330
8B
102
}
100
AcDbEntity
  8
0
  6
CONTINUOUS
 62
     7
100
AcDbLine
 10
521.410633
 20
223.75
 30
0.0
 11
479.5
 21
223.75
 31
0.0
  0
LINE
  5
A4
102
{ACAD_REACTORS
330
8B
102
}
100
AcDbEntity
  8
0
  6
CONTINUOUS
 62
     7
100
AcDbLine
 10
479.5
 20
223.75
 30
0.0
 11
479.5
 21
214.25
 31
0.0
  0
LINE
  5
A5
102
{ACAD_REACTORS
330
8B
102
}
100
AcDbEntity
  8
0
  6
CONTINUOUS
 62
     7
100
AcDbLine
 10
479.5
 20
214.25
 30
0.0
 11
511.871252
 21
214.25
 31
0.0
  0
LINE
  5
A6
102
{ACAD_REACTORS
330
8B
102
}
100
AcDbEntity
  8
0
  6
CONTINUOUS
 62
     7
100
AcDbLine
 10
511.871252
 20
214.25
 30
0.0
 11
486.905146
 21
189.38696
 31
0.0
  0
ARC
  5
A7
102
{ACAD_REACTORS
330
8B
102
}
100
AcDbEntity
  8
0
  6
CONTINUOUS
 62
     7
100
AcDbCircle
 10
474.405826
 20
205.0
 30
0.0
 40
20.0
100
AcDbArc
 50
270.0
 51
308.679691
  0
LINE
  5
A8
102
{ACAD_REACTORS
330
8B
102
}
100
AcDbEntity
  8
0
  6
CONTINUOUS
 62
     7
100
AcDbLine
 10
474.405826
 20
185.0
 30
0.0
 11
452.5
 21
185.0
 31
0.0
  0
LINE
  5
A9
102
{ACAD_REACTORS
330
8B
102
}
100
AcDbEntity
  8
0
  6
CONTINUOUS
 62
     7
100
AcDbLine
 10
452.5
 20
185.0
 30
0.0
 11
452.5
 21
185.1
 31
0.0
  0
LINE
  5
AA
102
{ACAD_REACTORS
330
8B
102
}
100
AcDbEntity
  8
0
  6
CONTINUOUS
 62
     7
100
AcDbLine
 10
452.5
 20
185.1
 30
0.0
 11
437.5
 21
185.1
 31
0.0
  0
ARC
  5
AB
102
{ACAD_REACTORS
330
8B
102
}
100
AcDbEntity
  8
0
  6
CONTINUOUS
 62
     7
100
AcDbCircle
 10
437.5
 20
205.1
 30
0.0
 40
20.0
100
AcDbArc
 50
180.28648
 51
270.0
  0
ARC
  5
AC
102
{ACAD_REACTORS
330
8B
102
}
100
AcDbEntity
  8
0
  6
CONTINUOUS
 62
     7
100
AcDbCircle
 10
397.499823
 20
204.999573
 30
0.0
 40
20.000427
100
AcDbArc
 50
0.0
 51
89.999494
  0
LINE
  5
AD
102
{ACAD_REACTORS
330
8B
102
}
100
AcDbEntity
  8
0
  6
CONTINUOUS
 62
     7
100
AcDbLine
 10
397.5
 20
225.0
 30
0.0
 11
202.5
 21
225.0
 31
0.0
  0
ARC
  5
AE
102
{ACAD_REACTORS
330
8B
102
}
100
AcDbEntity
  8
0
  6
CONTINUOUS
 62
     7
100
AcDbCircle
 10
202.5
 20
205.0
 30
0.0
 40
20.0
100
AcDbArc
 50
90.0
 51
180.0
  0
LINE
  5
AF
102
{ACAD_REACTORS
330
8B
102
}
100
AcDbEntity
  8
0
  6
CONTINUOUS
 62
     7
100
AcDbLine
 10
182.5
 20
205.0
 30
0.0
 11
182.5
 21
127.5
 31
0.0
  0
ARC
  5
B0
102
{ACAD_REACTORS
330
8B
102
}
100
AcDbEntity
  8
0
  6
CONTINUOUS
 62
     7
100
AcDbCircle
 10
162.5
 20
127.5
 30
0.0
 40
20.0
100
AcDbArc
 50
358.567904
 51
0.0
  0
ARC
  5
B1
102
{ACAD_REACTORS
330
8B
102
}
100
AcDbEntity
  8
0
  6
CONTINUOUS
 62
     7
100
AcDbCircle
 10
162.5
 20
127.5
 30
0.0
 40
20.0
100
AcDbArc
 50
356.980762
 51
358.567904
  0
ELLIPSE
  5
B2
102
{ACAD_REACTORS
330
8B
102
}
100
AcDbEntity
  8
0
  6
CONTINUOUS
 62
     7
100
AcDbEllipse
 10
110.0
 20
127.0
 30
0.0
 11
-72.500000000000867
 21
0.0
 31
0.0
210
0.0
220
0.0
230
1.0
 40
0.275862
 41
1.7948716120967301
 42
3.1139178676946746
  0
LINE
  5
B3
102
{ACAD_REACTORS
330
8B
102
}
100
AcDbEntity
  8
0
  6
CONTINUOUS
 62
     7
100
AcDbLine
 10
126.109852
 20
107.5
 30
0.0
 11
93.890148
 21
107.5
 31
0.0
  0
ELLIPSE
  5
B4
102
{ACAD_REACTORS
330
8B
102
}
100
AcDbEntity
  8
0
  6
CONTINUOUS
 62
     7
100
AcDbEllipse
 10
110.0
 20
127.0
 30
0.0
 11
-72.499999999999503
 21
0.0
 31
0.0
210
0.0
220
0.0
230
1.0
 40
0.275862
 41
0.0739118772865961
 42
1.3467210414931021
  0
LWPOLYLINE
  5
B5
102
{ACAD_REACTORS
330
8B
102
}
100
AcDbEntity
  8
0
  6
CONTINUOUS
 62
     7
100
AcDbPolyline
 90
        2
 70
     1
 10
498.3
 20
328.0
 42
1.0
 10
495.3
 20
328.0
 42
1.0
  0
LWPOLYLINE
  5
B6
102
{ACAD_REACTORS
330
8B
102
}
100
AcDbEntity
  8
0
  6
CONTINUOUS
 62
     7
100
AcDbPolyline
 90
        2
 70
     1
 10
544.8
 20
328.0
 42
1.0
 10
541.8
 20
328.0
 42
1.0
  0
LWPOLYLINE
  5
B7
102
{ACAD_REACTORS
330
8B
102
}
100
AcDbEntity
  8
0
  6
CONTINUOUS
 62
     7
100
AcDbPolyline
 90
       12
 70
     1
 10
152.475296
 20
159.006242
 42
0.00128
 10
152.48012
 20
159.108493
 42
-0.044845
 10
152.4
 20
160.0
 10
152.4
 20
205.0
 42
0.414214
 10
132.4
 20
225.0
 10
87.5
 20
225.0
 42
0.399728
 10
67.524704
 20
205.993758
 42
0.00128
 10
67.51988
 20
205.891507
 42
-0.044845
 10
67.6
 20
205.0
 10
67.6
 20
160.0
 42
0.414214
 10
87.6
 20
140.0
 10
132.5
 20
140.0
 42
0.399728
  0
LWPOLYLINE
  5
B8
102
{ACAD_REACTORS
330
8B
102
}
100
AcDbEntity
  8
0
  6
CONTINUOUS
 62
     7
100
AcDbPolyline
 90
        2
 70
     1
 10
227.0
 20
241.0
 42
1.0
 10
224.0
 20
241.0
 42
1.0
  0
LWPOLYLINE
  5
B9
102
{ACAD_REACTORS
330
8B
102
}
100
AcDbEntity
  8
0
  6
CONTINUOUS
 62
     7
100
AcDbPolyline
 90
        2
 70
     1
 10
180.5
 20
241.0
 42
1.0
 10
177.5
 20
241.0
 42
1.0
  0
LWPOLYLINE
  5
BA
102
{ACAD_REACTORS
330
8B
102
}
100
AcDbEntity
  8
0
  6
CONTINUOUS
 62
     7
100
AcDbPolyline
 90
        2
 70
     1
 10
479.5
 20
241.0
 42
1.0
 10
476.5
 20
241.0
 42
1.0
  0
LWPOLYLINE
  5
BB
102
{ACAD_REACTORS
330
8B
102
}
100
AcDbEntity
  8
0
  6
CONTINUOUS
 62
     7
100
AcDbPolyline
 90
        2
 70
     1
 10
433.0
 20
241.0
 42
1.0
 10
430.0
 20
241.0
 42
1.0
  0
LWPOLYLINE
  5
BC
102
{ACAD_REACTORS
330
8B
102
}
100
AcDbEntity
  8
0
  6
CONTINUOUS
 62
     7
100
AcDbPolyline
 90
        2
 70
     1
 10
353.25
 20
241.0
 42
1.0
 10
350.25
 20
241.0
 42
1.0
  0
LWPOLYLINE
  5
BD
102
{ACAD_REACTORS
330
8B
102
}
100
AcDbEntity
  8
0
  6
CONTINUOUS
 62
     7
100
AcDbPolyline
 90
        2
 70
     1
 10
306.75
 20
241.0
 42
1.0
 10
303.75
 20
241.0
 42
1.0
  0
LWPOLYLINE
  5
BE
102
{ACAD_REACTORS
330
8B
102
}
100
AcDbEntity
  8
0
  6
CONTINUOUS
 62
     7
100
AcDbPolyline
 90
        2
 70
     1
 10
479.5
 20
200.0
 42
1.0
 10
476.5
 20
200.0
 42
1.0
  0
LWPOLYLINE
  5
BF
102
{ACAD_REACTORS
330
8B
102
}
100
AcDbEntity
  8
0
  6
CONTINUOUS
 62
     7
100
AcDbPolyline
 90
        2
 70
     1
 10
433.0
 20
200.0
 42
1.0
 10
430.0
 20
200.0
 42
1.0
  0
LWPOLYLINE
  5
C0
102
{ACAD_REACTORS
330
8B
102
}
100
AcDbEntity
  8
0
  6
CONTINUOUS
 62
     7
100
AcDbPolyline
 90
        2
 70
     1
 10
134.75
 20
241.0
 42
1.0
 10
131.75
 20
241.0
 42
1.0
  0
LWPOLYLINE
  5
C1
102
{ACAD_REACTORS
330
8B
102
}
100
AcDbEntity
  8
0
  6
CONTINUOUS
 62
     7
100
AcDbPolyline
 90
        2
 70
     1
 10
88.25
 20
241.0
 42
1.0
 10
85.25
 20
241.0
 42
1.0
  0
LWPOLYLINE
  5
C2
102
{ACAD_REACTORS
330
8B
102
}
100
AcDbEntity
  8
0
  6
CONTINUOUS
 62
     7
100
AcDbPolyline
 90
        2
 70
     1
 10
134.75
 20
326.0
 42
1.0
 10
131.75
 20
326.0
 42
1.0
  0
LWPOLYLINE
  5
C3
102
{ACAD_REACTORS
330
8B
102
}
100
AcDbEntity
  8
0
  6
CONTINUOUS
 62
     7
100
AcDbPolyline
 90
        2
 70
     1
 10
88.25
 20
326.0
 42
1.0
 10
85.25
 20
326.0
 42
1.0
  0
LWPOLYLINE
  5
C4
102
{ACAD_REACTORS
330
8B
102
}
100
AcDbEntity
  8
0
  6
CONTINUOUS
 62
     7
100
AcDbPolyline
 90
        2
 70
     1
 10
134.75
 20
124.0
 42
1.0
 10
131.75
 20
124.0
 42
1.0
  0
LWPOLYLINE
  5
C5
102
{ACAD_REACTORS
330
8B
102
}
100
AcDbEntity
  8
0
  6
CONTINUOUS
 62
     7
100
AcDbPolyline
 90
        2
 70
     1
 10
88.25
 20
124.0
 42
1.0
 10
85.25
 20
124.0
 42
1.0
  0
LWPOLYLINE
  5
C6
102
{ACAD_REACTORS
330
8B
102
}
100
AcDbEntity
  8
0
  6
CONTINUOUS
 62
     7
100
AcDbPolyline
 90
        2
 70
     1
 10
167.5
 20
155.5
 42
1.0
 10
167.5
 20
158.5
 42
1.0
  0
LWPOLYLINE
  5
C7
102
{ACAD_REACTORS
330
8B
102
}
100
AcDbEntity
  8
0
  6
CONTINUOUS
 62
     7
100
AcDbPolyline
 90
        2
 70
     1
 10
167.5
 20
202.0
 42
1.0
 10
167.5
 20
205.0
 42
1.0
  0
LWPOLYLINE
  5
C8
102
{ACAD_REACTORS
330
8B
102
}
100
AcDbEntity
  8
0
  6
CONTINUOUS
 62
     7
100
AcDbPolyline
 90
        2
 70
     1
 10
52.5
 20
155.5
 42
1.0
 10
52.5
 20
158.5
 42
1.0
  0
LWPOLYLINE
  5
C9
102
{ACAD_REACTORS
330
8B
102
}
100
AcDbEntity
  8
0
  6
CONTINUOUS
 62
     7
100
AcDbPolyline
 90
        2
 70
     1
 10
52.5
 20
202.0
 42
1.0
 10
52.5
 20
205.0
 42
1.0
  0
LWPOLYLINE
  5
CA
102
{ACAD_REACTORS
330
8B
102
}
100
AcDbEntity
  8
0
  6
CONTINUOUS
 62
     7
100
AcDbPolyline
 90
        2
 70
     1
 10
47.5
 20
262.25
 42
1.0
 10
47.5
 20
265.25
 42
1.0
  0
LWPOLYLINE
  5
CB
102
{ACAD_REACTORS
330
8B
102
}
100
AcDbEntity
  8
0
  6
CONTINUOUS
 62
     7
100
AcDbPolyline
 90
        2
 70
     1
 10
47.5
 20
308.75
 42
1.0
 10
47.5
 20
311.75
 42
1.0
  0
LWPOLYLINE
  5
CC
102
{ACAD_REACTORS
330
8B
102
}
100
AcDbEntity
  8
0
  6
CONTINUOUS
 62
     7
100
AcDbPolyline
 90
        2
 70
     1
 10
552.5
 20
262.25
 42
1.0
 10
552.5
 20
265.25
 42
1.0
  0
LWPOLYLINE
  5
CD
102
{ACAD_REACTORS
330
8B
102
}
100
AcDbEntity
  8
0
  6
CONTINUOUS
 62
     7
100
AcDbPolyline
 90
        2
 70
     1
 10
552.5
 20
308.75
 42
1.0
 10
552.5
 20
311.75
 42
1.0
  0
LWPOLYLINE
  5
CF
102
{ACAD_REACTORS
330
CE
102
}
100
AcDbEntity
  8
0
  6
CONTINUOUS
 62
     7
100
AcDbPolyline
 90
        2
 70
     1
 10
580.0
 20
210.0
 42
-1.0
 10
620.0
 20
210.0
 42
-1.0
  0
LWPOLYLINE
  5
D0
102
{ACAD_REACTORS
330
CE
102
}
100
AcDbEntity
  8
0
  6
CONTINUOUS
 62
     7
100
AcDbPolyline
 90
       12
 70
     1
 10
576.905989
 20
120.0
 10
585.566243
 20
135.0
 42
-0.57735
 10
614.433757
 20
135.0
 10
623.094011
 20
120.0
 42
0.267949
 10
640.414519
 20
110.0
 10
675.055535
 20
110.0
 42
0.57735
 10
692.376043
 20
140.0
 10
617.320508
 20
270.0
 42
0.57735
 10
582.679492
 20
270.0
 10
507.623957
 20
140.0
 42
0.57735
 10
524.944465
 20
110.0
 10
559.585481
 20
110.0
 42
0.267949
  0
ENDSEC
  0
SECTION
  2
OBJECTS
  0
DICTIONARY
  5
C
100
AcDbDictionary
  3
ACAD_GROUP
350
D
  3
ACAD_MLINESTYLE
350
1B
  0
DICTIONARY
  5
D
102
{ACAD_REACTORS
330
C
102
}
100
AcDbDictionary
  3
VISIOGROUP_0
350
34
  3
VISIOGROUP_1
350
3E
  3
VISIOGROUP_2
350
81
  3
VISIOGROUP_3
350
8B
  3
VISIOGROUP_4
350
CE
  0
DICTIONARY
  5
1B
102
{ACAD_REACTORS
330
C
102
}
100
AcDbDictionary
  3
STANDARD
350
1C
  0
MLINESTYLE
  5
1C
102
{ACAD_REACTORS
330
1B
102
}
100
AcDbMlineStyle
  2
STANDARD
 70
     0
  3

 62
   256
 51
90.0
 52
90.0
 71
     2
 49
0.5
 62
   256
  6
BYLAYER
 49
-0.5
 62
   256
  6
BYLAYER
  0
GROUP
  5
34
102
{ACAD_REACTORS
330
D
102
}
100
AcDbGroup
300
Group created by Visio.
 70
     0
 71
     1
340
35
340
36
340
37
340
38
340
39
340
3A
340
3B
340
3C
340
3D
  0
GROUP
  5
3E
102
{ACAD_REACTORS
330
D
102
}
100
AcDbGroup
300
Group created by Visio.
 70
     0
 71
     1
340
3F
340
40
340
41
340
42
340
43
340
44
340
45
340
46
340
47
340
48
340
49
340
4A
340
4B
340
4C
340
4D
340
4E
340
4F
340
50
340
51
340
52
340
53
340
54
340
55
340
56
340
57
340
58
340
59
340
5A
340
5B
340
5C
340
5D
340
5E
340
5F
340
60
340
61
340
62
340
63
340
64
340
65
340
66
340
67
340
68
340
69
340
6A
340
6B
340
6C
340
6D
340
6E
340
6F
340
70
340
71
340
72
340
73
340
74
340
75
340
76
340
77
340
78
340
79
340
7A
340
7B
340
7C
340
7D
340
7E
340
7F
340
80
  0
GROUP
  5
81
102
{ACAD_REACTORS
330
D
102
}
100
AcDbGroup
300
Group created by Visio.
 70
     0
 71
     1
340
82
340
83
340
84
340
85
340
86
340
87
340
88
340
89
340
8A
  0
GROUP
  5
8B
102
{ACAD_REACTORS
330
D
102
}
100
AcDbGroup
300
Group created by Visio.
 70
     0
 71
     1
340
8C
340
8D
340
8E
340
8F
340
90
340
91
340
92
340
93
340
94
340
95
340
96
340
97
340
98
340
99
340
9A
340
9B
340
9C
340
9D
340
9E
340
9F
340
A0
340
A1
340
A2
340
A3
340
A4
340
A5
340
A6
340
A7
340
A8
340
A9
340
AA
340
AB
340
AC
340
AD
340
AE
340
AF
340
B0
340
B1
340
B2
340
B3
340
B4
340
B5
340
B6
340
B7
340
B8
340
B9
340
BA
340
BB
340
BC
340
BD
340
BE
340
BF
340
C0
340
C1
340
C2
340
C3
340
C4
340
C5
340
C6
340
C7
340
C8
340
C9
340
CA
340
CB
340
CC
340
CD
  0
GROUP
  5
CE
102
{ACAD_REACTORS
330
D
102
}
100
AcDbGroup
300
Group created by Visio.
 70
     0
 71
     1
340
CF
340
D0
  0
ENDSEC
  0
EOF
