  0
SECTION
  2
HEADER
  9
$ACADVER
  1
AC1014
  9
$ACADMAINTVER
 70
     0
  9
$DWGCODEPAGE
  3
ANSI_1252
  9
$INSBASE
 10
0.0
 20
0.0
 30
0.0
  9
$EXTMIN
 10
0.0
 20
0.0
 30
0.0
  9
$EXTMAX
 10
841.0
 20
594.0
 30
0.0
  9
$LIMMIN
 10
0.0
 20
0.0
  9
$LIMMAX
 10
12.0
 20
9.0
  9
$ORTHOMODE
 70
     0
  9
$REGENMODE
 70
     1
  9
$FILLMODE
 70
     0
  9
$QTEXTMODE
 70
     0
  9
$MIRRTEXT
 70
     1
  9
$DRAGMODE
 70
     2
  9
$LTSCALE
 40
1.0
  9
$OSMODE
 70
     0
  9
$ATTMODE
 70
     1
  9
$TEXTSIZE
 40
0.2
  9
$TRACEWID
 40
0.05
  9
$TEXTSTYLE
  7
STANDARD
  9
$CLAYER
  8
0
  9
$CELTYPE
  6
BYLAYER
  9
$CECOLOR
 62
   256
  9
$CELTSCALE
 40
1.0
  9
$DELOBJ
 70
     1
  9
$DISPSILH
 70
     0
  9
$DIMSCALE
 40
1.0
  9
$DIMASZ
 40
0.18
  9
$DIMEXO
 40
0.0625
  9
$DIMDLI
 40
0.38
  9
$DIMRND
 40
0.0
  9
$DIMDLE
 40
0.0
  9
$DIMEXE
 40
0.18
  9
$DIMTP
 40
0.0
  9
$DIMTM
 40
0.0
  9
$DIMTXT
 40
0.18
  9
$DIMCEN
 40
0.09
  9
$DIMTSZ
 40
0.0
  9
$DIMTOL
 70
     0
  9
$DIMLIM
 70
     0
  9
$DIMTIH
 70
     0
  9
$DIMTOH
 70
     0
  9
$DIMSE1
 70
     0
  9
$DIMSE2
 70
     0
  9
$DIMTAD
 70
     1
  9
$DIMZIN
 70
     0
  9
$DIMBLK
  1

  9
$DIMASO
 70
     1
  9
$DIMSHO
 70
     1
  9
$DIMPOST
  1

  9
$DIMAPOST
  1

  9
$DIMALT
 70
     0
  9
$DIMALTD
 70
     2
  9
$DIMALTF
 40
25.4
  9
$DIMLFAC
 40
1.0
  9
$DIMTOFL
 70
     0
  9
$DIMTVP
 40
0.0
  9
$DIMTIX
 70
     0
  9
$DIMSOXD
 70
     0
  9
$DIMSAH
 70
     0
  9
$DIMBLK1
  1

  9
$DIMBLK2
  1

  9
$DIMSTYLE
  2
STANDARD
  9
$DIMCLRD
 70
     0
  9
$DIMCLRE
 70
     0
  9
$DIMCLRT
 70
     0
  9
$DIMTFAC
 40
1.0
  9
$DIMGAP
 40
0.09
  9
$DIMJUST
 70
     0
  9
$DIMSD1
 70
     0
  9
$DIMSD2
 70
     0
  9
$DIMTOLJ
 70
     1
  9
$DIMTZIN
 70
     0
  9
$DIMALTZ
 70
     0
  9
$DIMALTTZ
 70
     0
  9
$DIMFIT
 70
     3
  9
$DIMUPT
 70
     0
  9
$DIMUNIT
 70
     2
  9
$DIMDEC
 70
     2
  9
$DIMTDEC
 70
     4
  9
$DIMALTU
 70
     2
  9
$DIMALTTD
 70
     2
  9
$DIMTXSTY
  7
STANDARD
  9
$DIMAUNIT
 70
     0
  9
$LUNITS
 70
     2
  9
$LUPREC
 70
     4
  9
$SKETCHINC
 40
0.1
  9
$FILLETRAD
 40
0.5
  9
$AUNITS
 70
     0
  9
$AUPREC
 70
     0
  9
$MENU
  1
.
  9
$ELEVATION
 40
0.0
  9
$PELEVATION
 40
0.0
  9
$THICKNESS
 40
0.0
  9
$LIMCHECK
 70
     0
  9
$BLIPMODE
 70
     0
  9
$CHAMFERA
 40
0.5
  9
$CHAMFERB
 40
0.5
  9
$CHAMFERC
 40
1.0
  9
$CHAMFERD
 40
0.0
  9
$SKPOLY
 70
     0
  9
$TDCREATE
 40
2450772.666465926
  9
$TDUPDATE
 40
2457586.624212963
  9
$TDINDWG
 40
0.0011564931
  9
$TDUSRTIMER
 40
0.0000000000
  9
$USRTIMER
 70
     1
  9
$ANGBASE
 50
0.0
  9
$ANGDIR
 70
     0
  9
$PDMODE
 70
     0
  9
$PDSIZE
 40
0.0
  9
$PLINEWID
 40
0.0
  9
$COORDS
 70
     1
  9
$SPLFRAME
 70
     0
  9
$SPLINETYPE
 70
     6
  9
$SPLINESEGS
 70
     8
  9
$ATTDIA
 70
     0
  9
$ATTREQ
 70
     1
  9
$HANDLING
 70
     1
  9
$HANDSEED
  5
94
  9
$SURFTAB1
 70
     6
  9
$SURFTAB2
 70
     6
  9
$SURFTYPE
 70
     6
  9
$SURFU
 70
     6
  9
$SURFV
 70
     6
  9
$UCSNAME
  2

  9
$UCSORG
 10
0.0
 20
0.0
 30
0.0
  9
$UCSXDIR
 10
1.0
 20
0.0
 30
0.0
  9
$UCSYDIR
 10
0.0
 20
1.0
 30
0.0
  9
$PUCSNAME
  2

  9
$PUCSORG
 10
0.0
 20
0.0
 30
0.0
  9
$PUCSXDIR
 10
1.0
 20
0.0
 30
0.0
  9
$PUCSYDIR
 10
0.0
 20
1.0
 30
0.0
  9
$USERI1
 70
     0
  9
$USERI2
 70
     0
  9
$USERI3
 70
     0
  9
$USERI4
 70
     0
  9
$USERI5
 70
     0
  9
$USERR1
 40
0.0
  9
$USERR2
 40
0.0
  9
$USERR3
 40
0.0
  9
$USERR4
 40
0.0
  9
$USERR5
 40
0.0
  9
$WORLDVIEW
 70
     1
  9
$SHADEDGE
 70
     3
  9
$SHADEDIF
 70
    70
  9
$TILEMODE
 70
     1
  9
$MAXACTVP
 70
    48
  9
$PINSBASE
 10
0.0
 20
0.0
 30
0.0
  9
$PLIMCHECK
 70
     0
  9
$PEXTMIN
 10
0.0
 20
0.0
 30
0.0
  9
$PEXTMAX
 10
0.0
 20
0.0
 30
0.0
  9
$PLIMMIN
 10
0.0
 20
0.0
  9
$PLIMMAX
 10
12.0
 20
9.0
  9
$UNITMODE
 70
     0
  9
$VISRETAIN
 70
     1
  9
$PLINEGEN
 70
     0
  9
$PSLTSCALE
 70
     1
  9
$TREEDEPTH
 70
  3020
  9
$PICKSTYLE
 70
     1
  9
$CMLSTYLE
  2
STANDARD
  9
$CMLJUST
 70
     0
  9
$CMLSCALE
 40
1.0
  9
$PROXYGRAPHICS
 70
     1
  9
$MEASUREMENT
 70
     0
  0
ENDSEC
  0
SECTION
  2
CLASSES
  0
CLASS
  1
LWPOLYLINE
  2
AcDbPolyline
  3
"AutoCAD"
 90
        0
280
     0
281
     1
  0
CLASS
  1
IMAGE
  2
AcDbRasterImage
  3
ISM
 90
      127
280
     0
281
     1
  0
CLASS
  1
OLE2FRAME
  2
AcDbOle2Frame
  3
""
 90
        0
280
     0
281
     1
  0
CLASS
  1
HATCH
  2
AcDbHatch
  3
"ACAD_SEDONA"
 90
        0
280
     0
281
     1
  0
CLASS
  1
DICTIONARYVAR
  2
AcDbDictionaryVar
  3
"AutoCAD"
 90
        0
280
     0
281
     0
  0
CLASS
  1
RASTERVARIABLES
  2
AcDbRasterVariables
  3
ISM
 90
        0
280
     0
281
     0
  0
CLASS
  1
IMAGEDEF
  2
AcDbRasterImageDef
  3
ISM
 90
        0
280
     0
281
     0
  0
CLASS
  1
IMAGEDEF_REACTOR
  2
AcDbRasterImageDefReactor
  3
ISM
 90
        1
280
     0
281
     0
  0
CLASS
  1
IDBUFFER
  2
AcDbIdBuffer
  3
"Acad"
 90
        0
280
     0
281
     0
  0
CLASS
  1
SPATIAL_FILTER
  2
AcDbSpatialFilter
  3
"Acad"
 90
        0
280
     0
281
     0
  0
CLASS
  1
XRECORD
  2
AcDbXrecord
  3
"<Built In>"
 90
        0
280
     0
281
     0
  0
CLASS
  1
SORTENTSTABLE
  2
AcDbSortentsTable
  3
"AutoCAD"
 90
        0
280
     0
281
     0
  0
CLASS
  1
LAYER_INDEX
  2
AcDbLayerIndex
  3
"Acad"
 90
        0
280
     0
281
     0
  0
CLASS
  1
SPATIAL_INDEX
  2
AcDbSpatialIndex
  3
"Acad"
 90
        0
280
     0
281
     0
  0
CLASS
  1
OBJECT_PTR
  2
CAseDLPNTableRecord
  3
"ASE-LPNTableRecord"
 90
        1
280
     0
281
     0
  0
CLASS
  1
LAYOUT
  2
AcDbLayout
  3
"AutoCAD 2000"
 90
        1
280
     0
281
     0
  0
CLASS
  1
PLOTSETTINGS
  2
AcDbPlotSettings
  3
"AutoCAD 2000"
 90
        1
280
     0
281
     0
  0
CLASS
  1
ACDBDICTIONARYWDFLT
  2
AcDbDictionaryWithDefault
  3
"AutoCAD 2000"
 90
        1
280
     0
281
     0
  0
CLASS
  1
ACDBPLACEHOLDER
  2
AcDbPlaceHolder
  3
"AutoCAD 2000"
 90
        1
280
     0
281
     0
  0
CLASS
  1
VBA_PROJECT
  2
AcDbVbaProject
  3
"acadvba"
 90
        1
280
     0
281
     0
  0
CLASS
  1
WIPEOUT
  2
AcDbWipeout
  3
WipeOut|AutoCAD Express Tool|expresstools@autodesk.com
 90
      127
280
     0
281
     1
  0
CLASS
  1
WIPEOUTVARIABLES
  2
AcDbWipeoutVariables
  3
WipeOut|AutoCAD Express Tool|expresstools@autodesk.com
 90
        0
280
     0
281
     0
  0
CLASS
  1
RTEXT
  2
RText
  3
RText|AutoCAD Express Tool|expresstools@autodesk.com
 90
        0
280
     0
281
     1
  0
CLASS
  1
ARCALIGNEDTEXT
  2
AcDbArcAlignedText
  3
ATEXT|AutoCAD Express Tool|expresstools@autodesk.com
 90
        0
280
     0
281
     1
  0
ENDSEC
  0
SECTION
  2
TABLES
  0
TABLE
  2
VPORT
  5
8
100
AcDbSymbolTable
 70
     1
  0
VPORT
  5
25
100
AcDbSymbolTableRecord
100
AcDbViewportTableRecord
  2
*ACTIVE
 70
     0
 10
0.0
 20
0.0
 11
1.0
 21
1.0
 12
420.5
 22
297.0
 13
0.0
 23
0.0
 14
0.5
 24
0.5
 15
0.5
 25
0.5
 16
0.0
 26
0.0
 36
1.0
 17
0.0
 27
0.0
 37
0.0
 40
594.0
 41
1.415825
 42
50.0
 43
0.0
 44
0.0
 50
0.0
 51
0.0
 71
     0
 72
   100
 73
     1
 74
     1
 75
     0
 76
     0
 77
     0
 78
     0
  0
ENDTAB
  0
TABLE
  2
LTYPE
  5
5
100
AcDbSymbolTable
 70
     3
  0
LTYPE
  5
12
100
AcDbSymbolTableRecord
100
AcDbLinetypeTableRecord
  2
BYBLOCK
 70
    64
  3

 72
    65
 73
     0
 40
0.0
  0
LTYPE
  5
13
100
AcDbSymbolTableRecord
100
AcDbLinetypeTableRecord
  2
BYLAYER
 70
    64
  3

 72
    65
 73
     0
 40
0.0
  0
LTYPE
  5
14
100
AcDbSymbolTableRecord
100
AcDbLinetypeTableRecord
  2
CONTINUOUS
 70
     0
  3
Solid line
 72
    65
 73
     0
 40
0.0
  0
ENDTAB
  0
TABLE
  2
LAYER
  5
2
100
AcDbSymbolTable
 70
     1
  0
LAYER
  5
E
100
AcDbSymbolTableRecord
100
AcDbLayerTableRecord
  2
0
 70
     0
 62
     7
  6
CONTINUOUS
  0
ENDTAB
  0
TABLE
  2
STYLE
  5
3
100
AcDbSymbolTable
 70
     1
  0
STYLE
  5
F
100
AcDbSymbolTableRecord
100
AcDbTextStyleTableRecord
  2
STANDARD
 70
     0
 40
0.0
 41
1.0
 50
0.0
 71
     0
 42
0.2
  3
txt.shx
  4

  0
ENDTAB
  0
TABLE
  2
VIEW
  5
6
100
AcDbSymbolTable
 70
     0
  0
ENDTAB
  0
TABLE
  2
UCS
  5
7
100
AcDbSymbolTable
 70
     0
  0
ENDTAB
  0
TABLE
  2
APPID
  5
9
100
AcDbSymbolTable
 70
     1
  0
APPID
  5
10
100
AcDbSymbolTableRecord
100
AcDbRegAppTableRecord
  2
ACAD
 70
     0
  0
ENDTAB
  0
TABLE
  2
DIMSTYLE
  5
A
100
AcDbSymbolTable
 70
     1
  0
DIMSTYLE
105
1D
100
AcDbSymbolTableRecord
100
AcDbDimStyleTableRecord
  2
STANDARD
 70
     0
  3

  4

  5

  6

  7

 40
1.0
 41
0.18
 42
0.0625
 43
0.38
 44
0.18
 45
0.0
 46
0.0
 47
0.0
 48
0.0
 71
     0
 72
     0
 73
     1
 74
     1
 75
     0
 76
     0
 77
     0
 78
     0
140
0.18
141
0.09
142
0.0
143
25.4
144
1.0
145
0.0
146
1.0
147
0.09
170
     0
171
     2
172
     0
173
     0
174
     0
175
     0
176
     0
177
     0
178
     0
270
     2
271
     4
272
     4
273
     2
274
     2
275
     0
280
     0
281
     0
282
     0
283
     1
284
     0
285
     0
286
     0
287
     3
288
     0
340
F
  0
ENDTAB
  0
TABLE
  2
BLOCK_RECORD
  5
1
100
AcDbSymbolTable
 70
     5
  0
BLOCK_RECORD
  5
18
100
AcDbSymbolTableRecord
100
AcDbBlockTableRecord
  2
*MODEL_SPACE
  0
BLOCK_RECORD
  5
15
100
AcDbSymbolTableRecord
100
AcDbBlockTableRecord
  2
*PAPER_SPACE
  0
BLOCK_RECORD
  5
7B
100
AcDbSymbolTableRecord
100
AcDbBlockTableRecord
  2
RECTANGLE
  0
BLOCK_RECORD
  5
80
100
AcDbSymbolTableRecord
100
AcDbBlockTableRecord
  2
CIRCLE
  0
BLOCK_RECORD
  5
85
100
AcDbSymbolTableRecord
100
AcDbBlockTableRecord
  2
ROUNDED_RECTANGLE
  0
BLOCK_RECORD
  5
8A
100
AcDbSymbolTableRecord
100
AcDbBlockTableRecord
  2
SQUARE
  0
BLOCK_RECORD
  5
8F
100
AcDbSymbolTableRecord
100
AcDbBlockTableRecord
  2
CENTER_DRAG_CIRCLE
  0
ENDTAB
  0
ENDSEC
  0
SECTION
  2
BLOCKS
  0
BLOCK
  5
19
100
AcDbEntity
  8
0
100
AcDbBlockBegin
  2
*MODEL_SPACE
 70
     0
 10
0.0
 20
0.0
 30
0.0
  3
*MODEL_SPACE
  1

  0
ENDBLK
  5
1A
100
AcDbEntity
  8
0
100
AcDbBlockEnd
  0
BLOCK
  5
16
100
AcDbEntity
 67
     1
  8
0
100
AcDbBlockBegin
  2
*PAPER_SPACE
 70
     0
 10
0.0
 20
0.0
 30
0.0
  3
*PAPER_SPACE
  1

  0
ENDBLK
  5
17
100
AcDbEntity
 67
     1
  8
0
100
AcDbBlockEnd
  0
BLOCK
  5
7C
100
AcDbEntity
  8
0
100
AcDbBlockBegin
  2
RECTANGLE
 70
     0
 10
0.0
 20
0.0
 30
0.0
  3
RECTANGLE
  1

  0
LWPOLYLINE
  5
7D
102
{ACAD_REACTORS
330
7E
102
}
100
AcDbEntity
  8
0
  6
CONTINUOUS
 62
     7
100
AcDbPolyline
 90
        4
 70
     1
 10
30.0
 20
35.0
 10
70.0
 20
35.0
 10
70.0
 20
65.0
 10
30.0
 20
65.0
  0
HATCH
  5
7E
100
AcDbEntity
  8
0
 62
   254
100
AcDbHatch
 10
0.0
 20
0.0
 30
0.0
210
0.0
220
0.0
230
1.0
  2
SOLID
 70
     1
 71
     1
 91
        1
 92
        3
 72
     0
 73
     1
 93
        4
 10
30.0
 20
35.0
 10
70.0
 20
35.0
 10
70.0
 20
65.000000000000014
 10
30.0
 20
65.000000000000014
 97
        1
330
7D
 75
     0
 76
     1
 98
        0
  0
ENDBLK
  5
7F
100
AcDbEntity
  8
0
100
AcDbBlockEnd
  0
BLOCK
  5
81
100
AcDbEntity
  8
0
100
AcDbBlockBegin
  2
CIRCLE
 70
     0
 10
0.0
 20
0.0
 30
0.0
  3
CIRCLE
  1

  0
LWPOLYLINE
  5
82
102
{ACAD_REACTORS
330
83
102
}
100
AcDbEntity
  8
0
  6
CONTINUOUS
 62
     7
100
AcDbPolyline
 90
        2
 70
     1
 10
30.0
 20
50.0
 42
-1.0
 10
70.0
 20
50.0
 42
-1.0
  0
HATCH
  5
83
100
AcDbEntity
  8
0
 62
   254
100
AcDbHatch
 10
0.0
 20
0.0
 30
0.0
210
0.0
220
0.0
230
1.0
  2
SOLID
 70
     1
 71
     1
 91
        1
 92
        3
 72
     1
 73
     1
 93
        2
 10
30.000000000000004
 20
50.0
 42
-0.9999999999999999
 10
70.0
 20
50.0
 42
-1.0000000000000071
 97
        1
330
82
 75
     0
 76
     1
 98
        0
  0
ENDBLK
  5
84
100
AcDbEntity
  8
0
100
AcDbBlockEnd
  0
BLOCK
  5
86
100
AcDbEntity
  8
0
100
AcDbBlockBegin
  2
ROUNDED_RECTANGLE
 70
     0
 10
0.0
 20
0.0
 30
0.0
  3
ROUNDED_RECTANGLE
  1

  0
LWPOLYLINE
  5
87
102
{ACAD_REACTORS
330
88
102
}
100
AcDbEntity
  8
0
  6
CONTINUOUS
 62
     7
100
AcDbPolyline
 90
        8
 70
     1
 10
65.0
 20
35.0
 42
0.414209
 10
70.0
 20
40.0
 10
70.0
 20
60.0
 42
0.414209
 10
65.0
 20
65.0
 10
35.0
 20
65.0
 42
0.414209
 10
30.0
 20
60.0
 10
30.0
 20
40.0
 42
0.414209
 10
35.0
 20
35.0
  0
HATCH
  5
88
100
AcDbEntity
  8
0
 62
   254
100
AcDbHatch
 10
0.0
 20
0.0
 30
0.0
210
0.0
220
0.0
230
1.0
  2
SOLID
 70
     1
 71
     1
 91
        1
 92
        3
 72
     1
 73
     1
 93
        8
 10
65.000000093999986
 20
35.0
 42
0.4142090102834559
 10
70.0
 20
39.999999905999999
 42
0.0
 10
70.0
 20
60.000000093999994
 42
0.4142090102834552
 10
65.000000093999986
 20
65.000000000000014
 42
0.0
 10
34.999999905999999
 20
65.0
 42
0.414209010283455
 10
30.0
 20
60.000000094000001
 42
0.0
 10
30.0
 20
39.999999905999992
 42
0.4142090102834558
 10
34.999999905999999
 20
35.0
 42
0.0
 97
        1
330
87
 75
     0
 76
     1
 98
        0
  0
ENDBLK
  5
89
100
AcDbEntity
  8
0
100
AcDbBlockEnd
  0
BLOCK
  5
8B
100
AcDbEntity
  8
0
100
AcDbBlockBegin
  2
SQUARE
 70
     0
 10
0.0
 20
0.0
 30
0.0
  3
SQUARE
  1

  0
LWPOLYLINE
  5
8C
102
{ACAD_REACTORS
330
8D
102
}
100
AcDbEntity
  8
0
  6
CONTINUOUS
 62
     7
100
AcDbPolyline
 90
        4
 70
     1
 10
30.0
 20
30.0
 10
70.0
 20
30.0
 10
70.0
 20
70.0
 10
30.0
 20
70.0
  0
HATCH
  5
8D
100
AcDbEntity
  8
0
 62
   254
100
AcDbHatch
 10
0.0
 20
0.0
 30
0.0
210
0.0
220
0.0
230
1.0
  2
SOLID
 70
     1
 71
     1
 91
        1
 92
        3
 72
     0
 73
     1
 93
        4
 10
30.0
 20
30.0
 10
70.0
 20
30.0
 10
70.0
 20
70.0
 10
30.0
 20
70.0
 97
        1
330
8C
 75
     0
 76
     1
 98
        0
  0
ENDBLK
  5
8E
100
AcDbEntity
  8
0
100
AcDbBlockEnd
  0
BLOCK
  5
90
100
AcDbEntity
  8
0
100
AcDbBlockBegin
  2
CENTER_DRAG_CIRCLE
 70
     0
 10
0.0
 20
0.0
 30
0.0
  3
CENTER_DRAG_CIRCLE
  1

  0
LWPOLYLINE
  5
91
102
{ACAD_REACTORS
330
92
102
}
100
AcDbEntity
  8
0
  6
CONTINUOUS
 62
     7
100
AcDbPolyline
 90
        2
 70
     1
 10
28.75
 20
50.0
 42
-1.0
 10
68.75
 20
50.0
 42
-1.0
  0
HATCH
  5
92
100
AcDbEntity
  8
0
 62
   254
100
AcDbHatch
 10
0.0
 20
0.0
 30
0.0
210
0.0
220
0.0
230
1.0
  2
SOLID
 70
     1
 71
     1
 91
        1
 92
        3
 72
     1
 73
     1
 93
        2
 10
28.749999999999996
 20
50.0
 42
-0.9999999999999999
 10
68.749999999999986
 20
50.0
 42
-1.0000000000000071
 97
        1
330
91
 75
     0
 76
     1
 98
        0
  0
ENDBLK
  5
93
100
AcDbEntity
  8
0
100
AcDbBlockEnd
  0
ENDSEC
  0
SECTION
  2
ENTITIES
  0
LWPOLYLINE
  5
32
102
{ACAD_REACTORS
330
31
102
}
100
AcDbEntity
  8
0
  6
CONTINUOUS
 62
     7
100
AcDbPolyline
 90
        2
 70
     1
 10
233.0
 20
454.5
 42
-1.0
 10
233.0
 20
457.5
 42
-1.0
  0
LWPOLYLINE
  5
33
102
{ACAD_REACTORS
330
31
102
}
100
AcDbEntity
  8
0
  6
CONTINUOUS
 62
     7
100
AcDbPolyline
 90
        2
 70
     1
 10
233.0
 20
408.0
 42
-1.0
 10
233.0
 20
411.0
 42
-1.0
  0
LWPOLYLINE
  5
34
102
{ACAD_REACTORS
330
31
102
}
100
AcDbEntity
  8
0
  6
CONTINUOUS
 62
     7
100
AcDbPolyline
 90
        2
 70
     1
 10
738.0
 20
454.5
 42
-1.0
 10
738.0
 20
457.5
 42
-1.0
  0
LWPOLYLINE
  5
35
102
{ACAD_REACTORS
330
31
102
}
100
AcDbEntity
  8
0
  6
CONTINUOUS
 62
     7
100
AcDbPolyline
 90
        2
 70
     1
 10
738.0
 20
408.0
 42
-1.0
 10
738.0
 20
411.0
 42
-1.0
  0
LWPOLYLINE
  5
36
102
{ACAD_REACTORS
330
31
102
}
100
AcDbEntity
  8
0
  6
CONTINUOUS
 62
     7
100
AcDbPolyline
 90
        2
 70
     1
 10
733.0
 20
347.75
 42
-1.0
 10
733.0
 20
350.75
 42
-1.0
  0
LWPOLYLINE
  5
37
102
{ACAD_REACTORS
330
31
102
}
100
AcDbEntity
  8
0
  6
CONTINUOUS
 62
     7
100
AcDbPolyline
 90
        2
 70
     1
 10
733.0
 20
301.25
 42
-1.0
 10
733.0
 20
304.25
 42
-1.0
  0
LWPOLYLINE
  5
38
102
{ACAD_REACTORS
330
31
102
}
100
AcDbEntity
  8
0
  6
CONTINUOUS
 62
     7
100
AcDbPolyline
 90
        2
 70
     1
 10
618.0
 20
347.75
 42
-1.0
 10
618.0
 20
350.75
 42
-1.0
  0
LWPOLYLINE
  5
39
102
{ACAD_REACTORS
330
31
102
}
100
AcDbEntity
  8
0
  6
CONTINUOUS
 62
     7
100
AcDbPolyline
 90
        2
 70
     1
 10
618.0
 20
301.25
 42
-1.0
 10
618.0
 20
304.25
 42
-1.0
  0
LWPOLYLINE
  5
3A
102
{ACAD_REACTORS
330
31
102
}
100
AcDbEntity
  8
0
  6
CONTINUOUS
 62
     7
100
AcDbPolyline
 90
        2
 70
     1
 10
697.25
 20
269.75
 42
-1.0
 10
700.25
 20
269.75
 42
-1.0
  0
LWPOLYLINE
  5
3B
102
{ACAD_REACTORS
330
31
102
}
100
AcDbEntity
  8
0
  6
CONTINUOUS
 62
     7
100
AcDbPolyline
 90
        2
 70
     1
 10
650.75
 20
269.75
 42
-1.0
 10
653.75
 20
269.75
 42
-1.0
  0
LWPOLYLINE
  5
3C
102
{ACAD_REACTORS
330
31
102
}
100
AcDbEntity
  8
0
  6
CONTINUOUS
 62
     7
100
AcDbPolyline
 90
        2
 70
     1
 10
697.25
 20
471.75
 42
-1.0
 10
700.25
 20
471.75
 42
-1.0
  0
LWPOLYLINE
  5
3D
102
{ACAD_REACTORS
330
31
102
}
100
AcDbEntity
  8
0
  6
CONTINUOUS
 62
     7
100
AcDbPolyline
 90
        2
 70
     1
 10
650.75
 20
471.75
 42
-1.0
 10
653.75
 20
471.75
 42
-1.0
  0
LWPOLYLINE
  5
3E
102
{ACAD_REACTORS
330
31
102
}
100
AcDbEntity
  8
0
  6
CONTINUOUS
 62
     7
100
AcDbPolyline
 90
        2
 70
     1
 10
697.25
 20
386.75
 42
-1.0
 10
700.25
 20
386.75
 42
-1.0
  0
LWPOLYLINE
  5
3F
102
{ACAD_REACTORS
330
31
102
}
100
AcDbEntity
  8
0
  6
CONTINUOUS
 62
     7
100
AcDbPolyline
 90
        2
 70
     1
 10
650.75
 20
386.75
 42
-1.0
 10
653.75
 20
386.75
 42
-1.0
  0
LWPOLYLINE
  5
40
102
{ACAD_REACTORS
330
31
102
}
100
AcDbEntity
  8
0
  6
CONTINUOUS
 62
     7
100
AcDbPolyline
 90
        2
 70
     1
 10
352.5
 20
345.75
 42
-1.0
 10
355.5
 20
345.75
 42
-1.0
  0
LWPOLYLINE
  5
41
102
{ACAD_REACTORS
330
31
102
}
100
AcDbEntity
  8
0
  6
CONTINUOUS
 62
     7
100
AcDbPolyline
 90
        2
 70
     1
 10
306.0
 20
345.75
 42
-1.0
 10
309.0
 20
345.75
 42
-1.0
  0
LWPOLYLINE
  5
42
102
{ACAD_REACTORS
330
31
102
}
100
AcDbEntity
  8
0
  6
CONTINUOUS
 62
     7
100
AcDbPolyline
 90
        2
 70
     1
 10
478.75
 20
386.75
 42
-1.0
 10
481.75
 20
386.75
 42
-1.0
  0
LWPOLYLINE
  5
43
102
{ACAD_REACTORS
330
31
102
}
100
AcDbEntity
  8
0
  6
CONTINUOUS
 62
     7
100
AcDbPolyline
 90
        2
 70
     1
 10
432.25
 20
386.75
 42
-1.0
 10
435.25
 20
386.75
 42
-1.0
  0
LWPOLYLINE
  5
44
102
{ACAD_REACTORS
330
31
102
}
100
AcDbEntity
  8
0
  6
CONTINUOUS
 62
     7
100
AcDbPolyline
 90
        2
 70
     1
 10
352.5
 20
386.75
 42
-1.0
 10
355.5
 20
386.75
 42
-1.0
  0
LWPOLYLINE
  5
45
102
{ACAD_REACTORS
330
31
102
}
100
AcDbEntity
  8
0
  6
CONTINUOUS
 62
     7
100
AcDbPolyline
 90
        2
 70
     1
 10
306.0
 20
386.75
 42
-1.0
 10
309.0
 20
386.75
 42
-1.0
  0
LWPOLYLINE
  5
46
102
{ACAD_REACTORS
330
31
102
}
100
AcDbEntity
  8
0
  6
CONTINUOUS
 62
     7
100
AcDbPolyline
 90
        2
 70
     1
 10
605.0
 20
386.75
 42
-1.0
 10
608.0
 20
386.75
 42
-1.0
  0
LWPOLYLINE
  5
47
102
{ACAD_REACTORS
330
31
102
}
100
AcDbEntity
  8
0
  6
CONTINUOUS
 62
     7
100
AcDbPolyline
 90
        2
 70
     1
 10
558.5
 20
386.75
 42
-1.0
 10
561.5
 20
386.75
 42
-1.0
  0
LWPOLYLINE
  5
48
102
{ACAD_REACTORS
330
31
102
}
100
AcDbEntity
  8
0
  6
CONTINUOUS
 62
     7
100
AcDbPolyline
 90
       38
 70
     1
 10
273.628748
 20
360.0
 10
298.594854
 20
335.13696
 42
0.170393
 10
311.094174
 20
330.75
 10
333.0
 20
330.75
 10
333.0
 20
330.85
 10
348.0
 20
330.85
 42
0.41275
 10
367.99975
 20
350.75
 42
-0.414205
 10
388.0
 20
370.75
 10
583.0
 20
370.75
 42
-0.414214
 10
603.0
 20
350.75
 10
603.0
 20
273.25
 42
0.414214
 10
623.0
 20
253.25
 10
727.9
 20
253.25
 42
0.414214
 10
747.9
 20
273.25
 10
747.9
 20
288.75
 10
748.0
 20
288.75
 10
748.0
 20
460.75
 42
0.414214
 10
728.0
 20
480.75
 10
620.5
 20
480.75
 42
0.414214
 10
603.0
 20
463.25
 10
603.0
 20
462.75
 10
700.5
 20
462.75
 42
-0.414214
 10
730.5
 20
432.75
 42
-0.414214
 10
700.5
 20
402.75
 10
265.5
 20
402.75
 42
-0.414214
 10
235.5
 20
432.75
 42
-0.414214
 10
265.5
 20
462.75
 10
307.9
 20
462.75
 10
307.9
 20
465.75
 42
0.414214
 10
287.9
 20
485.75
 10
243.0
 20
485.75
 42
0.414214
 10
223.0
 20
465.75
 10
223.0
 20
418.844174
 42
0.198912
 10
228.857864
 20
404.702038
 10
256.952038
 20
376.607864
 10
264.089367
 20
369.5
 10
306.0
 20
369.5
 10
306.0
 20
360.0
  0
LWPOLYLINE
  5
49
102
{ACAD_REACTORS
330
31
102
}
100
AcDbEntity
  8
0
  6
CONTINUOUS
 62
     7
100
AcDbPolyline
 90
       12
 70
     1
 10
633.024704
 20
304.756242
 42
-0.00128
 10
633.01988
 20
304.858493
 42
0.044845
 10
633.1
 20
305.75
 10
633.1
 20
350.75
 42
-0.414214
 10
653.1
 20
370.75
 10
698.0
 20
370.75
 42
-0.399728
 10
717.975296
 20
351.743758
 42
-0.00128
 10
717.98012
 20
351.641507
 42
0.044845
 10
717.9
 20
350.75
 10
717.9
 20
305.75
 42
-0.414214
 10
697.9
 20
285.75
 10
653.0
 20
285.75
 42
-0.399728
  0
LWPOLYLINE
  5
4A
102
{ACAD_REACTORS
330
31
102
}
100
AcDbEntity
  8
0
  6
CONTINUOUS
 62
     7
100
AcDbPolyline
 90
        2
 70
     1
 10
240.7
 20
473.75
 42
-1.0
 10
243.7
 20
473.75
 42
-1.0
  0
LWPOLYLINE
  5
4B
102
{ACAD_REACTORS
330
31
102
}
100
AcDbEntity
  8
0
  6
CONTINUOUS
 62
     7
100
AcDbPolyline
 90
        2
 70
     1
 10
287.2
 20
473.75
 42
-1.0
 10
290.2
 20
473.75
 42
-1.0
  0
LWPOLYLINE
  5
4C
102
{ACAD_REACTORS
330
31
102
}
100
AcDbEntity
  8
0
  6
CONTINUOUS
 62
     7
100
AcDbPolyline
 90
        2
 70
     1
 10
478.75
 20
427.75
 42
-1.0
 10
481.75
 20
427.75
 42
-1.0
  0
LWPOLYLINE
  5
4D
102
{ACAD_REACTORS
330
31
102
}
100
AcDbEntity
  8
0
  6
CONTINUOUS
 62
     7
100
AcDbPolyline
 90
        2
 70
     1
 10
432.25
 20
427.75
 42
-1.0
 10
435.25
 20
427.75
 42
-1.0
  0
LWPOLYLINE
  5
4E
102
{ACAD_REACTORS
330
31
102
}
100
AcDbEntity
  8
0
  6
CONTINUOUS
 62
     7
100
AcDbPolyline
 90
        2
 70
     1
 10
352.5
 20
427.75
 42
-1.0
 10
355.5
 20
427.75
 42
-1.0
  0
LWPOLYLINE
  5
4F
102
{ACAD_REACTORS
330
31
102
}
100
AcDbEntity
  8
0
  6
CONTINUOUS
 62
     7
100
AcDbPolyline
 90
        2
 70
     1
 10
306.0
 20
427.75
 42
-1.0
 10
309.0
 20
427.75
 42
-1.0
  0
LWPOLYLINE
  5
50
102
{ACAD_REACTORS
330
31
102
}
100
AcDbEntity
  8
0
  6
CONTINUOUS
 62
     7
100
AcDbPolyline
 90
        2
 70
     1
 10
605.0
 20
427.75
 42
-1.0
 10
608.0
 20
427.75
 42
-1.0
  0
LWPOLYLINE
  5
51
102
{ACAD_REACTORS
330
31
102
}
100
AcDbEntity
  8
0
  6
CONTINUOUS
 62
     7
100
AcDbPolyline
 90
        2
 70
     1
 10
558.5
 20
427.75
 42
-1.0
 10
561.5
 20
427.75
 42
-1.0
  0
LWPOLYLINE
  5
52
102
{ACAD_REACTORS
330
31
102
}
100
AcDbEntity
  8
0
  6
CONTINUOUS
 62
     7
100
AcDbPolyline
 90
       27
 70
     1
 10
660.000643
 20
452.685328
 42
0.272931
 10
656.5
 20
454.75
 10
607.0
 20
454.75
 42
0.32398
 10
603.2
 20
451.999
 42
0.079557
 10
603.1
 20
451.3745
 10
603.1
 20
447.75
 42
-0.414214
 10
598.1
 20
442.75
 10
313.0
 20
442.75
 42
-0.414214
 10
308.0
 20
447.75
 10
308.0
 20
449.412091
 42
0.03732
 10
307.955556
 20
450.006717
 42
-0.03732
 10
307.9
 20
450.75
 42
0.414214
 10
305.9
 20
452.75
 10
295.5
 20
452.75
 42
0.56619
 10
291.970588
 20
446.867647
 42
-0.123106
 10
295.5
 20
432.75
 42
-0.123106
 10
291.970588
 20
418.632353
 42
0.56619
 10
295.5
 20
412.75
 10
602.0
 20
412.75
 42
-0.414214
 10
603.0
 20
411.75
 42
0.414214
 10
604.0
 20
410.75
 10
658.75
 20
410.75
 42
0.414214
 10
660.5
 20
412.5
 10
660.5
 20
413.275658
 42
0.399265
 10
659.551282
 20
414.274342
 42
-0.399265
 10
642.0
 20
432.75
 42
-0.393699
 10
659.195971
 20
451.203984
 42
0.548017
  0
LWPOLYLINE
  5
53
102
{ACAD_REACTORS
330
31
102
}
100
AcDbEntity
  8
0
  6
CONTINUOUS
 62
     7
100
AcDbPolyline
 90
        2
 70
     1
 10
647.0
 20
447.75
 42
-1.0
 10
644.0
 20
447.75
 42
-1.0
  0
LWPOLYLINE
  5
54
102
{ACAD_REACTORS
330
31
102
}
100
AcDbEntity
  8
0
  6
CONTINUOUS
 62
     7
100
AcDbPolyline
 90
        2
 70
     1
 10
645.5
 20
419.25
 42
-1.0
 10
645.5
 20
416.25
 42
-1.0
  0
LWPOLYLINE
  5
56
102
{ACAD_REACTORS
330
55
102
}
100
AcDbEntity
  8
0
  6
CONTINUOUS
 62
     7
100
AcDbPolyline
 90
        2
 70
     1
 10
575.5
 20
320.75
 42
1.0
 10
575.5
 20
323.75
 42
1.0
  0
LWPOLYLINE
  5
57
102
{ACAD_REACTORS
330
55
102
}
100
AcDbEntity
  8
0
  6
CONTINUOUS
 62
     7
100
AcDbPolyline
 90
        2
 70
     1
 10
575.5
 20
274.25
 42
1.0
 10
575.5
 20
277.25
 42
1.0
  0
LWPOLYLINE
  5
58
102
{ACAD_REACTORS
330
55
102
}
100
AcDbEntity
  8
0
  6
CONTINUOUS
 62
     7
100
AcDbPolyline
 90
        2
 70
     1
 10
70.5
 20
320.75
 42
1.0
 10
70.5
 20
323.75
 42
1.0
  0
LWPOLYLINE
  5
59
102
{ACAD_REACTORS
330
55
102
}
100
AcDbEntity
  8
0
  6
CONTINUOUS
 62
     7
100
AcDbPolyline
 90
        2
 70
     1
 10
70.5
 20
274.25
 42
1.0
 10
70.5
 20
277.25
 42
1.0
  0
LWPOLYLINE
  5
5A
102
{ACAD_REACTORS
330
55
102
}
100
AcDbEntity
  8
0
  6
CONTINUOUS
 62
     7
100
AcDbPolyline
 90
        2
 70
     1
 10
75.5
 20
214.0
 42
1.0
 10
75.5
 20
217.0
 42
1.0
  0
LWPOLYLINE
  5
5B
102
{ACAD_REACTORS
330
55
102
}
100
AcDbEntity
  8
0
  6
CONTINUOUS
 62
     7
100
AcDbPolyline
 90
        2
 70
     1
 10
75.5
 20
167.5
 42
1.0
 10
75.5
 20
170.5
 42
1.0
  0
LWPOLYLINE
  5
5C
102
{ACAD_REACTORS
330
55
102
}
100
AcDbEntity
  8
0
  6
CONTINUOUS
 62
     7
100
AcDbPolyline
 90
        2
 70
     1
 10
190.5
 20
214.0
 42
1.0
 10
190.5
 20
217.0
 42
1.0
  0
LWPOLYLINE
  5
5D
102
{ACAD_REACTORS
330
55
102
}
100
AcDbEntity
  8
0
  6
CONTINUOUS
 62
     7
100
AcDbPolyline
 90
        2
 70
     1
 10
190.5
 20
167.5
 42
1.0
 10
190.5
 20
170.5
 42
1.0
  0
LWPOLYLINE
  5
5E
102
{ACAD_REACTORS
330
55
102
}
100
AcDbEntity
  8
0
  6
CONTINUOUS
 62
     7
100
AcDbPolyline
 90
        2
 70
     1
 10
111.25
 20
136.0
 42
1.0
 10
108.25
 20
136.0
 42
1.0
  0
LWPOLYLINE
  5
5F
102
{ACAD_REACTORS
330
55
102
}
100
AcDbEntity
  8
0
  6
CONTINUOUS
 62
     7
100
AcDbPolyline
 90
        2
 70
     1
 10
157.75
 20
136.0
 42
1.0
 10
154.75
 20
136.0
 42
1.0
  0
LWPOLYLINE
  5
60
102
{ACAD_REACTORS
330
55
102
}
100
AcDbEntity
  8
0
  6
CONTINUOUS
 62
     7
100
AcDbPolyline
 90
        2
 70
     1
 10
111.25
 20
338.0
 42
1.0
 10
108.25
 20
338.0
 42
1.0
  0
LWPOLYLINE
  5
61
102
{ACAD_REACTORS
330
55
102
}
100
AcDbEntity
  8
0
  6
CONTINUOUS
 62
     7
100
AcDbPolyline
 90
        2
 70
     1
 10
157.75
 20
338.0
 42
1.0
 10
154.75
 20
338.0
 42
1.0
  0
LWPOLYLINE
  5
62
102
{ACAD_REACTORS
330
55
102
}
100
AcDbEntity
  8
0
  6
CONTINUOUS
 62
     7
100
AcDbPolyline
 90
        2
 70
     1
 10
111.25
 20
253.0
 42
1.0
 10
108.25
 20
253.0
 42
1.0
  0
LWPOLYLINE
  5
63
102
{ACAD_REACTORS
330
55
102
}
100
AcDbEntity
  8
0
  6
CONTINUOUS
 62
     7
100
AcDbPolyline
 90
        2
 70
     1
 10
157.75
 20
253.0
 42
1.0
 10
154.75
 20
253.0
 42
1.0
  0
LWPOLYLINE
  5
64
102
{ACAD_REACTORS
330
55
102
}
100
AcDbEntity
  8
0
  6
CONTINUOUS
 62
     7
100
AcDbPolyline
 90
        2
 70
     1
 10
456.0
 20
212.0
 42
1.0
 10
453.0
 20
212.0
 42
1.0
  0
LWPOLYLINE
  5
65
102
{ACAD_REACTORS
330
55
102
}
100
AcDbEntity
  8
0
  6
CONTINUOUS
 62
     7
100
AcDbPolyline
 90
        2
 70
     1
 10
502.5
 20
212.0
 42
1.0
 10
499.5
 20
212.0
 42
1.0
  0
LWPOLYLINE
  5
66
102
{ACAD_REACTORS
330
55
102
}
100
AcDbEntity
  8
0
  6
CONTINUOUS
 62
     7
100
AcDbPolyline
 90
        2
 70
     1
 10
329.75
 20
253.0
 42
1.0
 10
326.75
 20
253.0
 42
1.0
  0
LWPOLYLINE
  5
67
102
{ACAD_REACTORS
330
55
102
}
100
AcDbEntity
  8
0
  6
CONTINUOUS
 62
     7
100
AcDbPolyline
 90
        2
 70
     1
 10
376.25
 20
253.0
 42
1.0
 10
373.25
 20
253.0
 42
1.0
  0
LWPOLYLINE
  5
68
102
{ACAD_REACTORS
330
55
102
}
100
AcDbEntity
  8
0
  6
CONTINUOUS
 62
     7
100
AcDbPolyline
 90
        2
 70
     1
 10
456.0
 20
253.0
 42
1.0
 10
453.0
 20
253.0
 42
1.0
  0
LWPOLYLINE
  5
69
102
{ACAD_REACTORS
330
55
102
}
100
AcDbEntity
  8
0
  6
CONTINUOUS
 62
     7
100
AcDbPolyline
 90
        2
 70
     1
 10
502.5
 20
253.0
 42
1.0
 10
499.5
 20
253.0
 42
1.0
  0
LWPOLYLINE
  5
6A
102
{ACAD_REACTORS
330
55
102
}
100
AcDbEntity
  8
0
  6
CONTINUOUS
 62
     7
100
AcDbPolyline
 90
        2
 70
     1
 10
203.5
 20
253.0
 42
1.0
 10
200.5
 20
253.0
 42
1.0
  0
LWPOLYLINE
  5
6B
102
{ACAD_REACTORS
330
55
102
}
100
AcDbEntity
  8
0
  6
CONTINUOUS
 62
     7
100
AcDbPolyline
 90
        2
 70
     1
 10
250.0
 20
253.0
 42
1.0
 10
247.0
 20
253.0
 42
1.0
  0
LWPOLYLINE
  5
6C
102
{ACAD_REACTORS
330
55
102
}
100
AcDbEntity
  8
0
  6
CONTINUOUS
 62
     7
100
AcDbPolyline
 90
       38
 70
     1
 10
534.871252
 20
226.25
 10
509.905146
 20
201.38696
 42
-0.170393
 10
497.405826
 20
197.0
 10
475.5
 20
197.0
 10
475.5
 20
197.1
 10
460.5
 20
197.1
 42
-0.41275
 10
440.50025
 20
217.0
 42
0.414205
 10
420.5
 20
237.0
 10
225.5
 20
237.0
 42
0.414214
 10
205.5
 20
217.0
 10
205.5
 20
139.5
 42
-0.414214
 10
185.5
 20
119.5
 10
80.6
 20
119.5
 42
-0.414214
 10
60.6
 20
139.5
 10
60.6
 20
155.0
 10
60.5
 20
155.0
 10
60.5
 20
327.0
 42
-0.414214
 10
80.5
 20
347.0
 10
188.0
 20
347.0
 42
-0.414214
 10
205.5
 20
329.5
 10
205.5
 20
329.0
 10
108.0
 20
329.0
 42
0.414214
 10
78.0
 20
299.0
 42
0.414214
 10
108.0
 20
269.0
 10
543.0
 20
269.0
 42
0.414214
 10
573.0
 20
299.0
 42
0.414214
 10
543.0
 20
329.0
 10
500.6
 20
329.0
 10
500.6
 20
332.0
 42
-0.414214
 10
520.6
 20
352.0
 10
565.5
 20
352.0
 42
-0.414214
 10
585.5
 20
332.0
 10
585.5
 20
285.094174
 42
-0.198912
 10
579.642136
 20
270.952038
 10
551.547962
 20
242.857864
 10
544.410633
 20
235.75
 10
502.5
 20
235.75
 10
502.5
 20
226.25
  0
LWPOLYLINE
  5
6D
102
{ACAD_REACTORS
330
55
102
}
100
AcDbEntity
  8
0
  6
CONTINUOUS
 62
     7
100
AcDbPolyline
 90
       12
 70
     1
 10
175.475296
 20
171.006242
 42
0.00128
 10
175.48012
 20
171.108493
 42
-0.044845
 10
175.4
 20
172.0
 10
175.4
 20
217.0
 42
0.414214
 10
155.4
 20
237.0
 10
110.5
 20
237.0
 42
0.399728
 10
90.524704
 20
217.993758
 42
0.00128
 10
90.51988
 20
217.891507
 42
-0.044845
 10
90.6
 20
217.0
 10
90.6
 20
172.0
 42
0.414214
 10
110.6
 20
152.0
 10
155.5
 20
152.0
 42
0.399728
  0
LWPOLYLINE
  5
6E
102
{ACAD_REACTORS
330
55
102
}
100
AcDbEntity
  8
0
  6
CONTINUOUS
 62
     7
100
AcDbPolyline
 90
        2
 70
     1
 10
567.8
 20
340.0
 42
1.0
 10
564.8
 20
340.0
 42
1.0
  0
LWPOLYLINE
  5
6F
102
{ACAD_REACTORS
330
55
102
}
100
AcDbEntity
  8
0
  6
CONTINUOUS
 62
     7
100
AcDbPolyline
 90
        2
 70
     1
 10
521.3
 20
340.0
 42
1.0
 10
518.3
 20
340.0
 42
1.0
  0
LWPOLYLINE
  5
70
102
{ACAD_REACTORS
330
55
102
}
100
AcDbEntity
  8
0
  6
CONTINUOUS
 62
     7
100
AcDbPolyline
 90
        2
 70
     1
 10
329.75
 20
294.0
 42
1.0
 10
326.75
 20
294.0
 42
1.0
  0
LWPOLYLINE
  5
71
102
{ACAD_REACTORS
330
55
102
}
100
AcDbEntity
  8
0
  6
CONTINUOUS
 62
     7
100
AcDbPolyline
 90
        2
 70
     1
 10
376.25
 20
294.0
 42
1.0
 10
373.25
 20
294.0
 42
1.0
  0
LWPOLYLINE
  5
72
102
{ACAD_REACTORS
330
55
102
}
100
AcDbEntity
  8
0
  6
CONTINUOUS
 62
     7
100
AcDbPolyline
 90
        2
 70
     1
 10
456.0
 20
294.0
 42
1.0
 10
453.0
 20
294.0
 42
1.0
  0
LWPOLYLINE
  5
73
102
{ACAD_REACTORS
330
55
102
}
100
AcDbEntity
  8
0
  6
CONTINUOUS
 62
     7
100
AcDbPolyline
 90
        2
 70
     1
 10
502.5
 20
294.0
 42
1.0
 10
499.5
 20
294.0
 42
1.0
  0
LWPOLYLINE
  5
74
102
{ACAD_REACTORS
330
55
102
}
100
AcDbEntity
  8
0
  6
CONTINUOUS
 62
     7
100
AcDbPolyline
 90
        2
 70
     1
 10
203.5
 20
294.0
 42
1.0
 10
200.5
 20
294.0
 42
1.0
  0
LWPOLYLINE
  5
75
102
{ACAD_REACTORS
330
55
102
}
100
AcDbEntity
  8
0
  6
CONTINUOUS
 62
     7
100
AcDbPolyline
 90
        2
 70
     1
 10
250.0
 20
294.0
 42
1.0
 10
247.0
 20
294.0
 42
1.0
  0
LWPOLYLINE
  5
76
102
{ACAD_REACTORS
330
55
102
}
100
AcDbEntity
  8
0
  6
CONTINUOUS
 62
     7
100
AcDbPolyline
 90
       27
 70
     1
 10
148.499357
 20
318.935328
 42
-0.272931
 10
152.0
 20
321.0
 10
201.5
 20
321.0
 42
-0.32398
 10
205.3
 20
318.249
 42
-0.079557
 10
205.4
 20
317.6245
 10
205.4
 20
314.0
 42
0.414214
 10
210.4
 20
309.0
 10
495.5
 20
309.0
 42
0.414214
 10
500.5
 20
314.0
 10
500.5
 20
315.662091
 42
-0.03732
 10
500.544444
 20
316.256717
 42
0.03732
 10
500.6
 20
317.0
 42
-0.414214
 10
502.6
 20
319.0
 10
513.0
 20
319.0
 42
-0.56619
 10
516.529412
 20
313.117647
 42
0.123106
 10
513.0
 20
299.0
 42
0.123106
 10
516.529412
 20
284.882353
 42
-0.56619
 10
513.0
 20
279.0
 10
206.5
 20
279.0
 42
0.414214
 10
205.5
 20
278.0
 42
-0.414214
 10
204.5
 20
277.0
 10
149.75
 20
277.0
 42
-0.414214
 10
148.0
 20
278.75
 10
148.0
 20
279.525658
 42
-0.399265
 10
148.948718
 20
280.524342
 42
0.399265
 10
166.5
 20
299.0
 42
0.393699
 10
149.304029
 20
317.453984
 42
-0.548017
  0
LWPOLYLINE
  5
77
102
{ACAD_REACTORS
330
55
102
}
100
AcDbEntity
  8
0
  6
CONTINUOUS
 62
     7
100
AcDbPolyline
 90
        2
 70
     1
 10
161.5
 20
314.0
 42
1.0
 10
164.5
 20
314.0
 42
1.0
  0
LWPOLYLINE
  5
78
102
{ACAD_REACTORS
330
55
102
}
100
AcDbEntity
  8
0
  6
CONTINUOUS
 62
     7
100
AcDbPolyline
 90
        2
 70
     1
 10
163.0
 20
285.5
 42
1.0
 10
163.0
 20
282.5
 42
1.0
  0
LWPOLYLINE
  5
79
100
AcDbEntity
  8
0
  6
CONTINUOUS
 62
     7
100
AcDbPolyline
 90
       16
 70
     1
 10
693.0
 20
183.5
 10
693.0
 20
184.5
 42
0.414214
 10
673.0
 20
204.5
 10
645.0
 20
204.5
 10
581.261472
 20
204.5
 42
0.407203
 10
573.263775
 20
196.691945
 10
573.002303
 20
185.797258
 42
0.005999
 10
573.0
 20
185.605313
 10
573.0
 20
152.5
 42
0.414214
 10
581.0
 20
144.5
 10
673.0
 20
144.5
 42
0.414214
 10
693.0
 20
164.5
 10
693.0
 20
165.5
 10
645.0
 20
165.5
 10
645.0
 20
177.86039
 10
645.43989
 20
183.5
  0
MTEXT
  5
7A
100
AcDbEntity
  8
0
100
AcDbMText
 10
633.0
 20
174.5
 30
0.0
 40
2.054647
 41
120.0
 71
     5
 72
     5
  1
\C7;\fArial|b0|i0|;\H2.0546471100301; 
  0
ENDSEC
  0
SECTION
  2
OBJECTS
  0
DICTIONARY
  5
C
100
AcDbDictionary
  3
ACAD_GROUP
350
D
  3
ACAD_MLINESTYLE
350
1B
  0
DICTIONARY
  5
D
102
{ACAD_REACTORS
330
C
102
}
100
AcDbDictionary
  3
VISIOGROUP_0
350
31
  3
VISIOGROUP_1
350
55
  0
DICTIONARY
  5
1B
102
{ACAD_REACTORS
330
C
102
}
100
AcDbDictionary
  3
STANDARD
350
1C
  0
MLINESTYLE
  5
1C
102
{ACAD_REACTORS
330
1B
102
}
100
AcDbMlineStyle
  2
STANDARD
 70
     0
  3

 62
   256
 51
90.0
 52
90.0
 71
     2
 49
0.5
 62
   256
  6
BYLAYER
 49
-0.5
 62
   256
  6
BYLAYER
  0
GROUP
  5
31
102
{ACAD_REACTORS
330
D
102
}
100
AcDbGroup
300
Group created by Visio.
 70
     0
 71
     1
340
32
340
33
340
34
340
35
340
36
340
37
340
38
340
39
340
3A
340
3B
340
3C
340
3D
340
3E
340
3F
340
40
340
41
340
42
340
43
340
44
340
45
340
46
340
47
340
48
340
49
340
4A
340
4B
340
4C
340
4D
340
4E
340
4F
340
50
340
51
340
52
340
53
340
54
  0
GROUP
  5
55
102
{ACAD_REACTORS
330
D
102
}
100
AcDbGroup
300
Group created by Visio.
 70
     0
 71
     1
340
56
340
57
340
58
340
59
340
5A
340
5B
340
5C
340
5D
340
5E
340
5F
340
60
340
61
340
62
340
63
340
64
340
65
340
66
340
67
340
68
340
69
340
6A
340
6B
340
6C
340
6D
340
6E
340
6F
340
70
340
71
340
72
340
73
340
74
340
75
340
76
340
77
340
78
  0
ENDSEC
  0
EOF
